<?xml version="1.0" standalone="no"?>
<!DOCTYPE svg PUBLIC "-//W3C//DTD SVG 20010904//EN"
 "http://www.w3.org/TR/2001/REC-SVG-20010904/DTD/svg10.dtd">
<svg version="1.0" xmlns="http://www.w3.org/2000/svg"
 width="1754.000000pt" height="1241.000000pt" viewBox="0 0 1754.000000 1241.000000"
 preserveAspectRatio="xMidYMid meet">

<g transform="translate(0.000000,1241.000000) scale(0.100000,-0.100000)"
fill="#000000" stroke="none">
<path d="M6641 11956 c2 -2 42 -6 89 -8 47 -3 74 -2 60 2 -25 8 -157 13 -149
6z"/>
<path d="M11018 11953 c12 -2 32 -2 45 0 12 2 2 4 -23 4 -25 0 -35 -2 -22 -4z"/>
<path d="M6608 11943 c7 -3 16 -2 19 1 4 3 -2 6 -13 5 -11 0 -14 -3 -6 -6z"/>
<path d="M6657 11927 c4 -6 -4 -8 -21 -5 -14 3 -26 1 -26 -5 0 -5 -9 -7 -20
-4 -13 3 -18 1 -13 -6 4 -6 0 -8 -10 -4 -9 3 -17 2 -19 -2 -5 -11 -102 -76
-110 -73 -5 1 -7 -1 -6 -5 4 -14 -49 -83 -57 -75 -5 4 -5 2 -2 -5 9 -15 -2
-45 -14 -37 -5 3 -6 -2 -3 -10 3 -9 2 -16 -4 -16 -6 0 -8 -10 -4 -22 3 -11 1
-19 -4 -16 -5 4 -9 -32 -9 -83 0 -49 4 -89 9 -89 4 0 6 -9 3 -20 -3 -11 -2
-18 2 -16 8 5 37 -63 33 -77 -1 -5 2 -6 8 -2 5 3 11 1 11 -4 1 -6 2 -17 3 -23
1 -7 7 -12 13 -11 6 1 19 -7 29 -18 19 -21 27 -49 15 -49 -15 0 -71 67 -100
120 -17 30 -31 51 -31 45 0 -23 61 -113 103 -152 168 -155 409 -146 565 22 81
86 106 149 106 270 0 104 -19 164 -78 244 -34 47 -144 131 -170 131 -6 0 12
-13 39 -29 227 -130 270 -437 87 -620 -73 -73 -147 -104 -258 -109 -98 -5
-157 8 -222 48 -55 34 -25 41 41 9 34 -16 70 -29 80 -29 10 0 16 -3 14 -7 -7
-11 137 -10 144 1 4 5 20 9 37 10 17 0 28 4 26 7 -2 3 14 14 36 24 52 24 131
108 160 170 30 66 38 190 16 259 -8 27 -12 54 -9 59 3 6 1 7 -5 3 -10 -6 -28
30 -24 47 1 4 -1 6 -5 5 -5 -1 -26 16 -49 37 -63 61 -90 81 -104 77 -7 -3 -10
-1 -7 4 3 5 -7 10 -21 11 -15 0 -28 5 -29 10 -2 5 -17 7 -33 5 -17 -2 -30 0
-30 4 0 5 -20 10 -45 10 -28 1 -42 -2 -38 -9z m2 -34 c-9 -10 -8 -13 2 -13 10
-1 8 -4 -3 -11 -18 -10 -25 -39 -10 -39 4 0 8 -8 9 -17 1 -10 4 -34 8 -52 8
-42 -15 -67 -46 -50 -15 7 -17 6 -13 -6 3 -8 10 -12 15 -9 5 3 9 -5 10 -18 l1
-23 7 24 c6 23 7 23 24 7 20 -20 26 -10 25 39 -1 17 2 46 7 65 8 34 9 34 16
10 4 -14 7 -45 8 -70 1 -60 19 -120 35 -120 7 0 13 7 13 15 0 8 -4 12 -8 10
-9 -6 -20 36 -12 48 3 6 12 2 20 -8 12 -18 13 -18 13 4 0 12 4 20 9 16 11 -6
26 13 17 22 -3 4 -15 -2 -25 -11 -19 -17 -20 -17 -31 4 -6 11 -9 34 -6 51 4
24 1 29 -11 25 -9 -4 -13 -1 -11 6 3 7 10 13 16 13 7 0 12 4 11 9 0 5 5 12 12
16 15 10 3 43 -14 37 -6 -2 -11 -15 -9 -28 2 -22 1 -23 -11 -7 -12 15 -16 16
-33 4 -19 -15 -44 -5 -44 16 0 6 8 4 17 -3 14 -12 15 -12 9 0 -5 8 -3 17 5 22
12 7 12 9 0 9 -11 0 -11 3 -1 15 7 8 18 15 25 15 7 0 18 -7 25 -15 18 -21 35
-19 19 3 -12 15 -12 16 1 6 8 -6 23 -10 33 -9 10 2 14 -1 10 -8 -4 -7 0 -8 11
-4 11 4 15 3 10 -4 -4 -8 1 -9 17 -4 18 5 21 4 9 -4 -8 -6 -23 -8 -34 -5 -13
4 -16 3 -11 -6 5 -9 4 -11 -3 -6 -8 5 -11 0 -8 -16 3 -13 5 -33 5 -45 1 -13 5
-23 11 -23 5 0 7 7 4 15 -4 8 -1 15 5 15 6 0 8 7 5 15 -4 8 -2 15 4 15 13 0
20 -30 16 -73 -2 -20 2 -40 8 -43 7 -5 8 -2 3 6 -5 8 -4 11 2 7 11 -7 10 -40
-2 -76 -3 -12 -11 -19 -16 -15 -5 3 -9 2 -8 -3 3 -20 -2 -30 -16 -30 -8 0 -15
4 -15 9 0 4 5 8 11 8 5 0 7 5 3 11 -4 8 -13 1 -22 -17 -21 -38 -23 -54 -8 -48
7 3 18 -5 24 -18 8 -17 11 -19 11 -6 1 9 -4 20 -9 23 -12 7 -4 25 11 25 6 0 7
-4 4 -10 -3 -5 5 -15 19 -22 14 -6 26 -15 26 -20 0 -13 -18 -9 -23 5 -5 15
-13 9 -21 -20 -6 -19 -3 -23 13 -23 11 0 29 10 40 21 17 18 18 24 6 35 -7 8
-18 14 -23 14 -16 0 -21 48 -5 54 7 3 13 9 12 13 -1 4 0 11 1 16 1 4 4 12 5
17 1 6 3 11 5 13 2 2 7 43 12 90 3 21 28 23 28 2 0 -17 38 -40 60 -37 12 2 13
1 1 -6 -11 -8 -10 -13 7 -30 13 -13 17 -24 11 -33 -11 -18 -11 -42 0 -35 5 3
15 -2 22 -11 8 -10 9 -14 2 -10 -8 5 -11 -2 -11 -22 1 -29 -24 -66 -36 -54 -3
4 -6 1 -6 -7 0 -10 -3 -10 -16 1 -14 12 -14 14 5 21 12 4 21 15 21 23 0 9 5
13 10 10 6 -3 10 1 10 9 0 9 -7 16 -15 16 -8 0 -15 -9 -15 -20 0 -11 -5 -20
-11 -20 -22 0 -37 -25 -25 -41 21 -27 52 -39 66 -26 10 9 11 9 8 -3 -7 -24
-47 -24 -68 0 -18 21 -19 21 -17 1 1 -12 11 -22 27 -27 23 -6 24 -7 5 -14 -12
-4 -23 -3 -28 4 -5 6 -5 1 -2 -11 5 -19 2 -23 -15 -23 -11 0 -23 7 -26 15 -4
8 -10 12 -15 9 -14 -8 -11 3 6 20 9 9 11 17 5 21 -5 3 -10 2 -10 -4 0 -5 -13
-8 -29 -6 -23 3 -30 -1 -35 -18 -10 -38 -7 -41 20 -16 l27 24 -8 -40 c-10 -59
-21 -68 -72 -60 -39 6 -43 4 -43 -14 0 -12 5 -21 10 -21 6 0 9 5 8 11 -2 6 3
14 11 17 8 2 11 1 8 -4 -3 -5 10 -10 29 -11 25 -1 35 3 40 19 4 13 12 18 25
15 17 -5 44 14 34 24 -2 3 5 5 15 6 26 2 25 -9 -1 -25 -16 -10 -18 -17 -10
-25 6 -6 11 -18 11 -26 -1 -11 -9 -6 -26 14 l-24 30 -19 -24 c-12 -16 -24 -22
-35 -18 -9 4 -28 0 -42 -9 -17 -12 -28 -13 -37 -6 -8 7 -18 7 -27 2 -10 -6
-22 -4 -36 5 -12 8 -31 11 -42 9 -13 -4 -25 2 -35 16 -8 12 -20 19 -26 16 -11
-7 -60 23 -61 37 0 4 8 7 18 8 13 0 14 2 2 6 -16 7 -39 33 -40 46 0 4 8 7 17
7 14 0 14 3 5 12 -10 10 -15 10 -21 0 -9 -15 -53 -13 -58 3 -1 6 11 10 27 11
17 1 38 10 46 20 14 18 15 18 9 -3 -4 -14 -2 -23 4 -23 18 0 12 35 -9 53 -11
9 -24 17 -29 17 -17 0 -19 24 -4 53 13 26 2 39 -13 15 -5 -8 -12 -3 -19 16
-11 25 -9 32 8 49 17 17 18 22 6 26 -8 2 0 9 21 16 22 8 34 18 34 29 -1 10 6
16 18 16 10 0 17 -4 14 -9 -11 -17 5 -40 22 -34 15 5 15 4 0 -8 -14 -11 -18
-43 -8 -56 2 -2 4 -7 5 -13 1 -5 4 -12 5 -15 1 -3 3 -10 4 -17 0 -6 7 -13 13
-15 10 -4 10 3 -1 27 -13 33 -10 84 5 74 12 -7 11 13 -1 37 -8 14 -7 19 2 19
9 0 9 3 -2 10 -10 6 -11 10 -2 10 6 0 12 7 12 15 0 8 4 15 9 15 4 0 8 -22 7
-50 -1 -32 1 -47 8 -40 5 5 10 25 10 45 1 19 3 35 6 35 3 0 6 9 7 20 1 13 -2
18 -10 14 -9 -5 -9 -3 0 6 10 11 10 17 0 29 -9 11 -9 13 0 8 6 -4 14 -4 17 1
3 5 12 9 20 9 12 0 13 -4 5 -14z m-57 -25 c-7 -7 -16 -6 -29 1 -16 11 -15 11
6 5 17 -4 21 -3 16 6 -6 9 -4 11 4 5 9 -5 9 -11 3 -17z m-35 -14 c-3 -3 -12
-4 -19 -1 -8 3 -5 6 6 6 11 1 17 -2 13 -5z m300 0 c-3 -3 -12 -4 -19 -1 -8 3
-5 6 6 6 11 1 17 -2 13 -5z m-304 -21 c-7 -2 -21 -2 -30 0 -10 3 -4 5 12 5 17
0 24 -2 18 -5z m320 0 c-7 -2 -21 -2 -30 0 -10 3 -4 5 12 5 17 0 24 -2 18 -5z
m-330 -20 c-13 -2 -35 -2 -50 0 -16 2 -5 4 22 4 28 0 40 -2 28 -4z m341 -1 c3
-5 -8 -6 -25 -4 -16 2 -29 6 -29 8 0 8 49 4 54 -4z m-464 -187 c9 -10 9 -15 1
-15 -6 0 -11 -7 -11 -16 0 -8 5 -12 10 -9 6 3 10 -1 10 -10 0 -8 9 -19 21 -23
19 -7 19 -9 5 -21 -13 -11 -16 -11 -16 -1 0 8 -3 10 -6 7 -12 -12 -45 35 -38
55 3 10 1 18 -5 18 -6 0 -8 7 -5 15 4 8 10 15 14 15 4 0 13 -7 20 -15z m440
-192 c0 -5 -5 -15 -10 -23 -8 -12 -10 -11 -10 8 0 12 5 22 10 22 6 0 10 -3 10
-7z m-440 -38 c0 -7 6 -18 14 -22 19 -12 29 -50 15 -59 -9 -5 -10 -2 -6 10 6
14 3 17 -8 12 -10 -4 -15 -1 -13 9 2 7 -1 15 -7 16 -22 6 -33 24 -23 37 14 16
28 15 28 -3z m580 -5 c13 -8 11 -11 -7 -16 -13 -4 -20 -10 -17 -15 10 -18 -6
-29 -27 -19 -20 11 -26 40 -8 40 5 0 8 -4 4 -9 -3 -5 0 -13 6 -17 8 -4 9 -3 5
4 -4 7 -2 12 3 12 6 0 10 3 10 8 -4 24 7 28 31 12z m-464 -67 c-4 -4 -11 -1
-16 7 -6 8 -10 11 -10 5 0 -5 -4 -3 -9 5 -16 24 0 33 22 11 12 -11 18 -24 13
-28z m299 18 c-3 -5 -1 -12 5 -16 5 -3 10 -1 10 4 0 6 5 11 10 11 29 0 -7 -31
-45 -39 -5 -2 -16 -7 -23 -13 -16 -14 -62 -19 -62 -7 0 8 18 13 48 12 8 -1 10
6 7 18 -4 11 -2 19 5 19 6 0 8 -5 4 -11 -4 -7 1 -10 12 -7 11 2 20 9 20 16 2
19 4 22 10 22 3 0 3 -4 -1 -9z m108 -7 c3 -3 3 -12 0 -20 -4 -11 -9 -12 -19
-3 -8 6 -11 15 -8 20 6 10 18 12 27 3z m-357 -19 c9 -8 24 -15 35 -15 21 0 26
-15 8 -26 -6 -3 -15 -1 -19 6 -4 7 -13 9 -19 6 -6 -4 -14 0 -17 8 -3 9 -10 13
-15 10 -5 -3 -9 2 -9 10 0 20 17 20 36 1z m-96 -3 c0 -13 -12 -22 -22 -16 -10
6 -1 24 13 24 5 0 9 -4 9 -8z m417 -26 c-6 -8 -16 -12 -20 -9 -4 3 -17 -5 -28
-18 -13 -15 -19 -17 -20 -8 0 8 -4 6 -8 -5 -4 -11 -14 -20 -23 -22 -9 -1 -26
-5 -39 -8 -21 -6 -21 -5 -6 4 9 6 15 15 12 20 -3 4 3 11 12 15 10 3 19 1 21
-5 3 -7 10 -2 19 9 8 12 21 21 29 21 8 0 14 5 14 11 0 6 7 9 15 5 8 -3 15 -1
15 5 0 6 4 7 10 4 6 -4 5 -11 -3 -19z m-387 0 c0 -18 -17 -29 -30 -21 -8 5 -7
11 1 21 15 18 29 18 29 0z m166 5 c-4 -5 4 -7 15 -4 16 4 20 2 17 -8 -3 -9
-16 -13 -38 -11 -21 2 -30 0 -25 -7 3 -6 2 -11 -3 -11 -6 0 -8 -10 -6 -22 2
-13 1 -17 -2 -9 -5 11 -8 11 -15 0 -7 -11 -9 -11 -9 -1 0 14 29 63 45 74 14
11 27 10 21 -1z m-130 -31 c5 0 10 -6 10 -15 2 -12 1 -12 -3 1 -4 13 -7 14
-13 4 -11 -17 -31 -3 -23 16 4 11 8 12 13 4 4 -6 11 -11 16 -10z m53 -28 c0
-14 -2 -13 -9 3 -8 19 -9 19 -9 1 -1 -11 -4 -17 -7 -13 -4 3 -4 13 0 22 7 20
26 10 25 -13z m151 8 c0 -5 -7 -10 -15 -10 -8 0 -15 -8 -15 -17 0 -15 -2 -16
-10 -3 -9 13 -10 13 -10 0 0 -13 -1 -13 -10 0 -15 23 -12 28 18 33 15 2 30 5
35 6 4 0 7 -3 7 -9z"/>
<path d="M6639 11898 c-5 -18 -6 -38 -1 -34 7 8 12 36 6 36 -2 0 -4 -1 -5 -2z"/>
<path d="M6766 11881 c-4 -5 -2 -12 3 -15 5 -4 12 -2 15 3 4 5 2 12 -3 15 -5
4 -12 2 -15 -3z"/>
<path d="M6777 11743 c-16 -8 -26 -17 -24 -20 3 -2 15 0 26 7 12 6 26 8 31 5
6 -3 7 1 4 9 -3 9 -7 16 -8 15 0 -1 -14 -8 -29 -16z"/>
<path d="M6626 11742 c-4 -7 -5 -12 -2 -12 2 0 11 -3 20 -6 9 -3 16 -1 16 6 0
6 -4 9 -9 6 -5 -4 -11 -1 -13 6 -3 9 -6 9 -12 0z"/>
<path d="M6465 11729 c-4 -6 -4 -13 -1 -16 3 -3 -2 -12 -12 -20 -9 -8 -11 -11
-3 -7 11 5 13 3 8 -9 -3 -10 -2 -17 4 -17 10 0 13 7 23 53 6 26 -6 37 -19 16z"/>
<path d="M6926 11713 c11 -54 14 -59 24 -43 5 8 6 19 2 25 -7 10 -8 15 -11 35
0 6 -6 10 -11 10 -6 0 -8 -12 -4 -27z"/>
<path d="M6576 11681 c-3 -5 1 -14 9 -21 10 -9 15 -9 15 -1 0 6 -5 11 -11 11
-5 0 -7 5 -4 10 3 6 4 10 1 10 -3 0 -7 -4 -10 -9z"/>
<path d="M6824 11682 c3 -5 0 -12 -6 -15 -7 -2 -10 -7 -7 -11 3 -4 12 0 18 8
9 11 9 16 0 22 -7 4 -9 3 -5 -4z"/>
<path d="M6660 11646 c0 -8 -5 -18 -12 -22 -7 -5 -8 -3 -3 7 8 12 6 12 -8 0
-12 -9 -17 -10 -17 -2 0 7 -4 9 -10 6 -6 -4 -2 -15 10 -27 11 -12 17 -24 14
-27 -3 -3 -11 1 -17 9 -15 19 -47 25 -47 8 0 -7 -11 -22 -25 -34 l-24 -21 20
-22 c32 -34 53 -24 52 27 0 23 3 42 8 42 13 0 20 -18 9 -25 -5 -3 -10 -14 -9
-23 0 -13 3 -11 11 6 6 13 17 21 24 18 12 -5 13 18 1 30 -13 13 -7 23 9 17 16
-6 34 12 34 35 0 6 -4 12 -10 12 -5 0 -10 -6 -10 -14z m-86 -101 c-7 -17 -20
-20 -29 -6 -3 5 3 12 12 14 10 3 19 5 20 6 1 0 0 -6 -3 -14z"/>
<path d="M6942 11639 c2 -7 10 -15 17 -17 8 -3 12 1 9 9 -2 7 -10 15 -17 17
-8 3 -12 -1 -9 -9z"/>
<path d="M6865 11590 c3 -5 8 -10 11 -10 2 0 4 5 4 10 0 6 -5 10 -11 10 -5 0
-7 -4 -4 -10z"/>
<path d="M6661 11478 c-14 -40 -14 -40 8 -26 17 10 23 8 44 -14 l24 -26 -38 2
c-24 1 -40 -3 -43 -11 -3 -8 2 -13 14 -13 10 0 21 -4 24 -9 9 -15 56 12 56 32
0 10 5 27 10 38 8 14 8 19 -2 17 -6 -2 -13 3 -14 10 -1 6 -2 16 -3 21 0 5 -16
9 -35 9 -30 0 -36 -4 -45 -30z m69 -10 c0 -12 -10 -9 -26 6 -20 21 -17 28 6
14 11 -7 20 -16 20 -20z"/>
<path d="M6530 11490 c-13 -8 -12 -10 3 -10 21 0 21 1 2 -43 -16 -38 -12 -47
21 -47 14 0 24 -8 27 -21 5 -18 10 -20 34 -14 45 12 58 11 55 -3 -1 -8 2 -11
8 -7 5 3 10 13 10 22 0 13 -8 14 -41 9 -49 -8 -66 3 -75 50 -4 21 -10 31 -18
27 -7 -3 -6 -1 1 7 11 11 17 10 38 -10 26 -24 33 -14 15 21 -8 13 -18 18 -35
15 -13 -3 -25 0 -27 4 -2 6 -9 5 -18 0z m30 -71 c0 -5 -4 -9 -10 -9 -5 0 -10
7 -10 16 0 8 5 12 10 9 6 -3 10 -10 10 -16z"/>
<path d="M6670 11441 c0 -6 5 -13 10 -16 6 -3 10 1 10 9 0 9 -4 16 -10 16 -5
0 -10 -4 -10 -9z"/>
<path d="M6505 11280 c-3 -5 -1 -10 4 -10 6 0 11 5 11 10 0 6 -2 10 -4 10 -3
0 -8 -4 -11 -10z"/>
<path d="M10950 11924 c-109 -29 -198 -102 -247 -201 -21 -43 -28 -75 -31
-140 -5 -96 8 -153 49 -219 33 -52 36 -62 12 -43 -16 13 -17 12 -4 -3 7 -10
17 -16 21 -13 9 6 42 -29 35 -37 -3 -3 3 -11 12 -19 16 -13 17 -12 4 4 -16 20
1 24 18 3 6 -7 39 -26 74 -42 82 -38 201 -40 289 -5 80 31 159 106 200 189 30
61 33 74 33 162 0 82 -4 103 -27 152 -53 113 -158 195 -277 218 -69 13 -94 12
-161 -6z m228 -26 c120 -45 219 -180 230 -313 19 -242 -215 -440 -449 -381
-322 82 -381 515 -92 673 102 56 199 62 311 21z"/>
<path d="M10998 11873 c6 -2 18 -2 25 0 6 3 1 5 -13 5 -14 0 -19 -2 -12 -5z"/>
<path d="M11068 11873 c6 -2 18 -2 25 0 6 3 1 5 -13 5 -14 0 -19 -2 -12 -5z"/>
<path d="M10936 11840 c-27 -11 -54 -24 -60 -30 -17 -17 -29 -11 -15 8 11 15
11 15 -1 4 -8 -7 -15 -16 -15 -20 0 -14 -58 -82 -65 -77 -5 3 -12 0 -16 -6 -5
-8 -3 -9 6 -4 10 6 11 4 5 -11 -24 -57 -36 -123 -30 -172 5 -51 38 -136 56
-148 5 -3 9 -10 9 -16 0 -6 -7 -5 -17 3 -16 13 -17 12 -4 -3 7 -10 17 -16 21
-13 9 6 42 -29 35 -37 -3 -3 3 -11 12 -19 17 -13 17 -13 3 5 -8 11 -10 17 -5
15 6 -3 33 -16 60 -29 105 -50 234 -34 319 41 72 63 99 117 104 208 4 72 -2
100 -33 175 -6 15 -5 17 5 11 9 -6 11 -4 6 4 -5 7 -10 10 -13 7 -3 -3 -30 17
-60 44 -86 78 -202 101 -307 60z m206 -10 c74 -28 122 -70 157 -142 124 -247
-140 -509 -386 -385 -98 50 -157 147 -157 257 0 202 198 340 386 270z"/>
<path d="M10977 11783 c-4 -3 -7 -15 -7 -25 0 -25 -16 -23 -24 5 -9 31 -24 5
-21 -37 2 -17 -1 -36 -6 -42 -6 -7 -5 -21 0 -35 8 -19 10 -20 10 -6 1 10 6 17
12 15 6 -2 10 -7 9 -12 -1 -5 3 -12 9 -15 7 -5 8 -18 2 -39 -6 -20 -6 -30 0
-27 5 4 9 14 9 23 0 9 7 26 15 36 8 11 15 29 15 40 -1 17 -4 15 -15 -9 l-15
-30 4 28 c2 21 0 25 -9 17 -9 -8 -14 -6 -19 6 -10 25 -7 54 5 54 6 0 9 -6 6
-13 -4 -10 2 -13 19 -9 13 2 24 8 24 13 0 5 7 9 15 9 11 0 15 -12 15 -49 0
-28 -4 -53 -10 -56 -5 -3 -10 -17 -10 -31 0 -15 -6 -24 -15 -24 -8 0 -15 -7
-15 -15 0 -9 -6 -12 -17 -8 -15 6 -16 5 -3 -9 11 -12 28 -15 62 -12 40 4 49 2
58 -17 7 -12 9 -36 5 -55 -5 -31 -9 -34 -42 -34 -27 0 -34 3 -30 15 4 8 1 17
-4 21 -6 3 -9 17 -7 29 3 14 1 22 -6 19 -12 -5 -15 -54 -3 -54 4 0 7 -6 6 -12
-4 -31 2 -39 21 -33 14 5 20 2 20 -9 0 -27 -29 -18 -49 15 -15 24 -20 27 -25
14 -3 -9 -4 -21 0 -26 3 -5 -1 -9 -9 -9 -8 0 -17 7 -21 15 -3 8 -16 14 -28 14
-20 -1 -21 -2 -3 -6 11 -3 25 -12 31 -21 7 -10 19 -13 34 -9 12 3 30 1 40 -6
14 -8 22 -8 34 2 9 7 13 17 10 22 -3 5 2 9 10 9 23 0 28 -18 9 -29 -10 -6 -13
-11 -8 -11 16 0 75 39 75 50 0 16 -20 12 -26 -5 -4 -8 -10 -15 -14 -15 -10 0
-10 49 0 55 5 3 6 14 3 25 -3 12 0 20 8 20 8 0 5 6 -7 15 -17 13 -18 14 -1 15
15 0 16 3 7 20 -6 11 -17 20 -25 20 -9 0 -15 10 -15 25 0 13 -8 29 -17 34 -14
8 -15 10 -3 11 9 0 11 3 5 8 -5 4 -10 23 -11 42 0 28 4 36 18 36 10 0 18 -4
18 -8 0 -13 38 -9 42 4 3 7 -2 26 -11 42 -10 21 -16 26 -19 16 -11 -31 -72
-56 -72 -29 0 5 -6 7 -12 3 -7 -4 -4 2 6 14 11 12 14 22 8 22 -6 0 -13 -6 -15
-12 -4 -10 -7 -10 -14 0 -5 7 -12 9 -16 5z m-37 -107 c0 -3 -4 -8 -10 -11 -5
-3 -10 -1 -10 4 0 6 5 11 10 11 6 0 10 -2 10 -4z"/>
<path d="M11137 11771 c-3 -14 -2 -31 2 -39 13 -22 21 1 12 34 -7 29 -7 29
-14 5z"/>
<path d="M10861 11711 c-14 -49 -12 -54 21 -49 l23 5 -25 11 c-18 8 -20 11 -7
11 18 1 20 14 8 46 -7 17 -10 13 -20 -24z"/>
<path d="M11197 11736 c-10 -25 -9 -34 6 -39 6 -2 4 -3 -5 -2 -10 2 -18 -3
-18 -12 0 -8 -5 -11 -11 -8 -6 4 -8 13 -6 19 3 7 -1 13 -9 13 -16 0 -19 -13
-4 -22 6 -3 10 -11 10 -16 0 -6 -6 -7 -12 -2 -26 16 -38 11 -38 -16 0 -17 5
-28 14 -28 8 0 11 7 9 18 -4 13 0 18 16 16 15 -1 20 -6 15 -17 -3 -8 -7 -28
-9 -45 -1 -16 0 -20 2 -7 3 16 12 22 31 23 25 2 25 2 4 6 -16 3 -22 9 -18 20
3 8 6 19 6 24 0 5 11 9 25 9 28 0 30 11 11 55 -10 25 -13 27 -19 11z"/>
<path d="M10811 11690 c-1 -8 -4 -26 -7 -40 -5 -22 -4 -23 6 -7 6 10 9 28 7
40 -2 12 -5 15 -6 7z"/>
<path d="M11266 11674 c9 -37 12 -41 20 -21 3 9 -1 24 -11 33 -15 15 -15 14
-9 -12z"/>
<path d="M11087 11673 c-3 -5 -1 -17 4 -28 7 -17 8 -17 8 8 1 27 -4 34 -12 20z"/>
<path d="M11198 11643 c7 -3 16 -2 19 1 4 3 -2 6 -13 5 -11 0 -14 -3 -6 -6z"/>
<path d="M10831 11624 c0 -11 3 -14 6 -6 3 7 2 16 -1 19 -3 4 -6 -2 -5 -13z"/>
<path d="M10863 11623 c9 -2 23 -2 30 0 6 3 -1 5 -18 5 -16 0 -22 -2 -12 -5z"/>
<path d="M11273 11617 c-3 -6 -1 -7 5 -3 15 9 15 -9 2 -35 -14 -25 -40 -25
-40 1 0 11 -4 20 -10 20 -5 0 -7 -6 -4 -14 4 -10 -2 -12 -23 -8 -15 2 -25 1
-20 -4 4 -4 17 -9 30 -11 77 -12 77 -12 83 15 3 15 7 32 9 38 4 13 -24 14 -32
1z"/>
<path d="M10817 11599 c7 -7 15 -10 18 -7 3 3 -2 9 -12 12 -14 6 -15 5 -6 -5z"/>
<path d="M10916 11602 c-2 -4 -1 -14 5 -22 7 -12 9 -10 9 8 0 23 -5 28 -14 14z"/>
<path d="M11121 11580 c14 -31 19 -36 19 -24 0 6 -7 19 -16 30 -14 18 -14 18
-3 -6z"/>
<path d="M10792 11581 c-10 -6 -10 -10 3 -21 8 -7 18 -10 22 -6 3 3 1 6 -6 6
-8 0 -11 7 -7 15 6 17 6 18 -12 6z"/>
<path d="M10865 11515 c0 -51 3 -65 15 -66 10 0 9 -3 -5 -10 l-20 -9 20 3 c12
2 19 9 16 18 -8 34 -8 45 2 57 6 8 6 12 -2 12 -6 0 -11 12 -11 26 0 14 4 23 9
19 5 -3 12 -2 15 3 2 4 -5 9 -17 10 -21 1 -22 -3 -22 -63z"/>
<path d="M11150 11520 c-13 -8 -13 -10 2 -10 9 0 20 5 23 10 8 13 -5 13 -25 0z"/>
<path d="M11197 11498 c7 -37 10 -44 19 -35 9 8 -6 67 -17 67 -4 0 -6 -15 -2
-32z"/>
<path d="M10810 11505 c-16 -19 -1 -19 24 0 16 12 17 15 4 15 -8 0 -21 -7 -28
-15z"/>
<path d="M10918 11513 c7 -3 16 -2 19 1 4 3 -2 6 -13 5 -11 0 -14 -3 -6 -6z"/>
<path d="M11035 11510 c-3 -6 1 -13 9 -16 14 -5 14 -8 1 -21 -16 -16 -12 -34
8 -32 9 0 9 2 0 6 -10 3 -9 8 2 20 19 19 19 33 -1 33 -8 0 -12 5 -9 10 3 6 4
10 1 10 -3 0 -8 -5 -11 -10z"/>
<path d="M11265 11510 c3 -5 11 -10 16 -10 6 0 7 5 4 10 -3 6 -11 10 -16 10
-6 0 -7 -4 -4 -10z"/>
<path d="M11170 11473 c0 -14 -2 -15 -9 -5 -7 11 -9 10 -15 -3 -3 -9 -10 -14
-15 -10 -5 3 -12 1 -16 -5 -3 -5 3 -10 14 -10 12 0 21 4 21 10 0 5 6 7 14 4
16 -6 30 22 16 31 -6 4 -10 -2 -10 -12z"/>
<path d="M11010 11469 c0 -5 5 -7 10 -4 6 3 10 8 10 11 0 2 -4 4 -10 4 -5 0
-10 -5 -10 -11z"/>
<path d="M10950 11450 c-9 -6 -10 -10 -3 -10 6 0 15 5 18 10 8 12 4 12 -15 0z"/>
<path d="M11168 11419 c-10 -5 -18 -15 -18 -22 0 -8 3 -9 8 -1 4 6 16 16 27
22 11 6 16 11 10 11 -5 0 -18 -4 -27 -10z"/>
<path d="M11220 11380 c-9 -6 -10 -10 -3 -10 6 0 15 5 18 10 8 12 4 12 -15 0z"/>
<path d="M11190 11349 c0 -5 -4 -7 -10 -4 -5 3 -10 1 -10 -5 0 -6 -5 -8 -12
-4 -7 4 -8 3 -4 -4 5 -9 13 -9 27 -2 17 10 27 30 14 30 -3 0 -5 -5 -5 -11z"/>
<path d="M11095 11310 c-3 -6 1 -7 9 -4 18 7 21 14 7 14 -6 0 -13 -4 -16 -10z"/>
<path d="M11260 11785 c19 -19 36 -35 39 -35 3 0 -10 16 -29 35 -19 19 -36 35
-39 35 -3 0 10 -16 29 -35z"/>
<path d="M11351 11614 c0 -11 3 -14 6 -6 3 7 2 16 -1 19 -3 4 -6 -2 -5 -13z"/>
<path d="M10722 11560 c0 -19 2 -27 5 -17 2 9 2 25 0 35 -3 9 -5 1 -5 -18z"/>
<path d="M11351 11504 c0 -11 3 -14 6 -6 3 7 2 16 -1 19 -3 4 -6 -2 -5 -13z"/>
<path d="M11259 11333 l-34 -38 38 34 c34 33 42 41 34 41 -2 0 -19 -17 -38
-37z"/>
<path d="M11013 11243 c15 -2 39 -2 55 0 15 2 2 4 -28 4 -30 0 -43 -2 -27 -4z"/>
<path d="M6518 11914 c-39 -21 -35 -28 5 -8 37 19 44 24 31 24 -5 -1 -21 -8
-36 -16z"/>
<path d="M10855 11910 c-3 -6 1 -7 9 -4 18 7 21 14 7 14 -6 0 -13 -4 -16 -10z"/>
<path d="M6421 11841 c-55 -56 -99 -137 -107 -197 -4 -32 -2 -29 11 16 21 72
54 127 111 184 26 25 45 46 41 46 -3 0 -28 -22 -56 -49z"/>
<path d="M10799 11873 c-13 -16 -12 -17 4 -4 9 7 17 15 17 17 0 8 -8 3 -21
-13z"/>
<path d="M11315 11840 c21 -22 41 -40 44 -40 3 0 -13 18 -34 40 -21 22 -41 40
-44 40 -3 0 13 -18 34 -40z"/>
<path d="M10729 11803 c-13 -16 -12 -17 4 -4 16 13 21 21 13 21 -2 0 -10 -8
-17 -17z"/>
<path d="M6240 11621 c0 -5 6 -12 13 -14 10 -4 10 -6 0 -6 -7 -1 -13 -6 -13
-12 0 -8 5 -8 15 1 8 7 15 19 15 26 0 8 -7 14 -15 14 -8 0 -15 -4 -15 -9z"/>
<path d="M7140 11620 c0 -6 7 -10 15 -10 8 0 15 2 15 4 0 2 -7 6 -15 10 -8 3
-15 1 -15 -4z"/>
<path d="M11431 11604 c0 -11 3 -14 6 -6 3 7 2 16 -1 19 -3 4 -6 -2 -5 -13z"/>
<path d="M6301 11559 c1 -24 5 -57 9 -74 5 -18 6 -2 3 40 -6 79 -14 101 -12
34z"/>
<path d="M7155 11590 c-3 -5 -1 -10 4 -10 6 0 11 5 11 10 0 6 -2 10 -4 10 -3
0 -8 -4 -11 -10z"/>
<path d="M6242 11531 c-1 -22 3 -43 8 -46 18 -11 24 3 10 20 -7 8 -8 15 -3 15
6 0 8 11 5 25 -7 37 -17 30 -20 -14z"/>
<path d="M7139 11561 c11 -7 11 -9 0 -13 -8 -3 -5 -7 8 -10 16 -4 21 -1 20 11
0 9 -10 18 -21 19 -15 1 -17 -1 -7 -7z"/>
<path d="M7140 11516 c0 -9 8 -16 20 -16 11 0 20 5 20 12 0 6 -3 8 -7 5 -3 -4
-12 -2 -20 4 -10 9 -13 8 -13 -5z"/>
<path d="M9323 11523 l-793 -3 0 -170 0 -170 795 0 795 0 0 175 c0 96 -1 174
-2 173 -2 -2 -360 -4 -795 -5z m-555 -95 c18 -36 82 -180 82 -185 0 -15 -47 6
-55 25 -8 18 -18 22 -58 22 -41 0 -49 -3 -57 -25 -9 -24 -50 -37 -50 -16 0 5
19 53 41 105 35 80 45 96 64 96 12 0 26 -9 33 -22z m182 -63 l0 -85 50 0 c43
0 50 -3 50 -20 0 -18 -7 -20 -75 -20 l-75 0 0 105 0 105 25 0 c25 0 25 -1 25
-85z m200 10 c0 -63 3 -76 19 -85 49 -26 71 2 71 91 0 68 0 69 26 69 l26 0 -4
-81 c-3 -74 -6 -83 -31 -105 -33 -28 -77 -31 -117 -7 -34 20 -40 37 -40 126 0
65 1 67 25 67 24 0 25 -2 25 -75z m287 13 c19 -32 37 -58 41 -58 4 0 22 27 40
60 23 42 39 60 52 60 19 0 20 -7 20 -105 0 -98 -1 -105 -20 -105 -18 0 -20 7
-20 62 l0 62 -24 -35 c-57 -80 -49 -77 -84 -25 l-31 48 -3 -54 c-3 -45 -6 -53
-23 -53 -19 0 -20 8 -23 103 -3 102 -2 103 20 100 14 -2 33 -22 55 -60z m320
2 l48 -60 3 60 c3 56 5 60 27 60 25 0 25 0 25 -100 0 -129 -12 -137 -81 -59
-27 30 -49 59 -50 64 -2 6 -5 -17 -8 -50 -5 -51 -9 -60 -26 -60 -19 0 -20 8
-23 103 -3 96 -2 102 17 102 13 0 38 -22 68 -60z m221 -42 c-3 -95 -4 -103
-23 -103 -18 0 -20 8 -23 89 -3 103 0 116 28 116 20 0 21 -5 18 -102z"/>
<path d="M8721 11359 c-14 -41 -15 -39 15 -39 24 0 25 3 19 28 -10 42 -22 46
-34 11z"/>
<path d="M10593 11512 c-1 -10 4 -19 12 -19 7 0 12 7 10 16 -3 22 -20 24 -22
3z"/>
<path d="M11431 11514 c0 -11 3 -14 6 -6 3 7 2 16 -1 19 -3 4 -6 -2 -5 -13z"/>
<path d="M11470 11521 c0 -5 7 -11 15 -15 8 -3 15 -1 15 3 0 5 -7 11 -15 15
-8 3 -15 1 -15 -3z"/>
<path d="M10542 11498 c2 -6 10 -14 16 -16 7 -2 10 2 6 12 -7 18 -28 22 -22 4z"/>
<path d="M11527 11490 c-3 -11 -1 -23 4 -26 5 -3 9 6 9 20 0 31 -6 34 -13 6z"/>
<path d="M6250 11462 c0 -4 6 -14 13 -21 10 -11 9 -12 -1 -6 -11 6 -12 3 -3
-13 27 -50 35 -29 15 36 -4 13 -24 17 -24 4z"/>
<path d="M11458 11463 c6 -2 18 -2 25 0 6 3 1 5 -13 5 -14 0 -19 -2 -12 -5z"/>
<path d="M10550 11450 c0 -5 5 -10 11 -10 5 0 7 5 4 10 -3 6 -8 10 -11 10 -2
0 -4 -4 -4 -10z"/>
<path d="M10605 11450 c3 -5 10 -10 16 -10 5 0 9 5 9 10 0 6 -7 10 -16 10 -8
0 -12 -4 -9 -10z"/>
<path d="M7135 11440 c-3 -5 -2 -10 4 -10 5 0 13 5 16 10 3 6 2 10 -4 10 -5 0
-13 -4 -16 -10z"/>
<path d="M11458 11423 c6 -2 18 -2 25 0 6 3 1 5 -13 5 -14 0 -19 -2 -12 -5z"/>
<path d="M7128 11413 c7 -3 16 -2 19 1 4 3 -2 6 -13 5 -11 0 -14 -3 -6 -6z"/>
<path d="M6210 11407 c0 -2 9 -14 20 -27 11 -13 20 -18 20 -12 0 6 -5 14 -10
17 -6 4 -8 11 -5 16 4 5 -1 9 -9 9 -9 0 -16 -2 -16 -3z"/>
<path d="M7170 11389 c-6 -11 -9 -25 -6 -32 3 -8 5 -7 5 2 1 8 8 23 18 33 9
10 11 18 5 18 -6 0 -16 -9 -22 -21z"/>
<path d="M11440 11399 c0 -15 18 -19 23 -6 3 8 -1 14 -9 14 -8 0 -14 -4 -14
-8z"/>
<path d="M7120 11390 c-13 -8 -12 -10 3 -10 9 0 17 5 17 10 0 12 -1 12 -20 0z"/>
<path d="M6287 11360 c3 -11 14 -27 24 -34 10 -7 16 -16 11 -21 -4 -5 -1 -5 5
-1 10 5 10 11 1 26 -7 10 -16 16 -21 13 -4 -3 -7 3 -5 12 2 10 -2 20 -9 22 -7
3 -9 -3 -6 -17z"/>
<path d="M10630 11376 c0 -2 9 -6 20 -9 11 -3 18 -1 14 4 -5 9 -34 13 -34 5z"/>
<path d="M7097 11363 c-13 -12 -7 -23 11 -22 10 0 12 3 4 6 -6 2 -10 9 -6 14
6 10 0 12 -9 2z"/>
<path d="M10580 11359 c0 -5 5 -7 10 -4 6 3 10 8 10 11 0 2 -4 4 -10 4 -5 0
-10 -5 -10 -11z"/>
<path d="M11416 11334 c-5 -14 -4 -15 9 -4 17 14 19 20 6 20 -5 0 -12 -7 -15
-16z"/>
<path d="M11475 11340 c-3 -6 1 -7 9 -4 18 7 21 14 7 14 -6 0 -13 -4 -16 -10z"/>
<path d="M7075 11320 c-3 -5 -8 -19 -10 -31 -3 -17 -2 -19 10 -9 8 7 12 16 10
21 -3 4 3 12 12 18 16 9 16 10 1 11 -9 0 -20 -4 -23 -10z"/>
<path d="M10605 11320 c-3 -5 -1 -10 4 -10 6 0 11 5 11 10 0 6 -2 10 -4 10 -3
0 -8 -4 -11 -10z"/>
<path d="M10666 11321 c-3 -5 3 -11 15 -14 16 -4 18 -3 8 9 -13 16 -16 17 -23
5z"/>
<path d="M6262 11301 c7 -11 16 -17 20 -14 10 5 -10 33 -23 33 -5 0 -4 -9 3
-19z"/>
<path d="M11319 11283 l-34 -38 38 34 c34 33 42 41 34 41 -2 0 -19 -17 -38
-37z"/>
<path d="M6339 11293 c-10 -11 -10 -14 -1 -9 8 5 12 1 12 -12 0 -11 7 -22 15
-26 19 -7 19 4 0 30 -8 12 -11 24 -8 28 3 3 4 6 1 6 -3 0 -12 -8 -19 -17z"/>
<path d="M11380 11295 c-18 -21 -5 -31 15 -12 8 9 11 18 6 21 -5 3 -14 -1 -21
-9z"/>
<path d="M6211 11293 c-1 -17 16 -25 25 -12 4 7 3 9 -4 5 -5 -3 -13 0 -15 6
-4 9 -6 10 -6 1z"/>
<path d="M10630 11280 c0 -5 5 -10 10 -10 6 0 10 5 10 10 0 6 -4 10 -10 10 -5
0 -10 -4 -10 -10z"/>
<path d="M6290 11267 c0 -8 9 -25 20 -38 17 -21 19 -22 20 -6 0 11 -4 15 -12
11 -7 -5 -9 -2 -5 9 3 8 -1 21 -9 27 -11 10 -14 9 -14 -3z"/>
<path d="M7100 11265 c-18 -21 -5 -31 15 -12 8 9 11 18 6 21 -5 3 -14 -1 -21
-9z"/>
<path d="M7163 11266 c3 -8 -1 -17 -9 -19 -10 -4 -9 -5 2 -3 18 1 29 36 12 36
-6 0 -8 -6 -5 -14z"/>
<path d="M11425 11270 c-3 -5 -1 -10 4 -10 6 0 11 5 11 10 0 6 -2 10 -4 10 -3
0 -8 -4 -11 -10z"/>
<path d="M6237 11264 c-3 -5 1 -18 9 -29 8 -10 14 -15 14 -9 0 5 5 2 10 -6 5
-8 10 -10 10 -5 0 17 -37 58 -43 49z"/>
<path d="M7004 11243 c2 -14 -1 -23 -9 -23 -16 0 -39 -27 -28 -33 11 -7 88 62
79 71 -4 4 -12 -2 -18 -13 -11 -19 -11 -19 -20 0 -7 18 -8 18 -4 -2z"/>
<path d="M6385 11229 c-7 -10 69 -69 88 -69 8 0 18 -6 20 -12 4 -10 6 -10 6 1
1 8 8 4 21 -10 l20 -24 -17 37 c-10 20 -19 30 -21 22 -3 -12 -6 -11 -19 2 -9
8 -22 13 -29 10 -8 -3 -14 1 -14 10 0 8 -7 17 -15 20 -8 4 -13 9 -10 13 2 4
-3 8 -11 8 -8 0 -17 -4 -19 -8z"/>
<path d="M7058 11209 c-24 -25 -7 -24 22 1 14 12 18 20 9 19 -8 0 -22 -9 -31
-20z"/>
<path d="M7115 11210 c-10 -11 -15 -23 -12 -27 4 -3 7 -1 7 6 0 7 4 10 9 7 5
-3 14 1 20 8 19 23 -4 28 -24 6z"/>
<path d="M11395 11220 c3 -5 8 -10 11 -10 2 0 4 5 4 10 0 6 -5 10 -11 10 -5 0
-7 -4 -4 -10z"/>
<path d="M6348 11209 c6 -9 8 -20 4 -24 -4 -5 -2 -5 5 -1 6 3 16 -2 22 -11 6
-10 11 -13 11 -7 0 6 -12 21 -27 35 -15 13 -22 17 -15 8z"/>
<path d="M10786 11193 c-3 -8 -2 -12 3 -8 14 8 42 -6 34 -18 -3 -6 -1 -7 5 -3
18 11 14 20 -12 32 -20 9 -26 9 -30 -3z"/>
<path d="M11255 11191 c-3 -5 0 -13 6 -17 8 -5 9 -3 4 6 -6 10 -4 12 9 7 10
-4 15 -3 11 3 -8 13 -22 13 -30 1z"/>
<path d="M6295 11181 c-6 -11 -5 -12 16 -15 6 0 17 -10 25 -20 8 -11 14 -15
14 -10 0 18 -47 57 -55 45z"/>
<path d="M6925 11170 c-15 -17 -16 -20 -3 -20 19 0 42 26 30 34 -5 3 -17 -3
-27 -14z"/>
<path d="M6541 11159 c-2 -25 24 -53 43 -46 9 4 16 2 16 -3 0 -5 7 -7 15 -4 8
4 23 0 32 -7 9 -8 14 -9 10 -2 -4 6 -1 14 5 16 7 3 2 6 -12 6 -46 2 -99 21
-103 39 -4 13 -5 14 -6 1z"/>
<path d="M7005 11160 c3 -5 8 -10 11 -10 2 0 4 5 4 10 0 6 -5 10 -11 10 -5 0
-7 -4 -4 -10z"/>
<path d="M7060 11155 c-14 -17 -8 -31 9 -20 6 3 8 11 5 17 -5 8 -1 9 10 5 10
-4 15 -3 11 3 -9 14 -21 12 -35 -5z"/>
<path d="M10850 11161 c0 -10 42 -23 49 -15 7 6 -20 24 -36 24 -7 0 -13 -4
-13 -9z"/>
<path d="M11028 11163 c12 -2 30 -2 40 0 9 3 -1 5 -23 4 -22 0 -30 -2 -17 -4z"/>
<path d="M11233 11155 c0 -8 4 -12 9 -9 5 3 6 10 3 15 -9 13 -12 11 -12 -6z"/>
<path d="M6408 11153 c6 -2 9 -10 6 -15 -4 -6 -2 -8 4 -4 6 3 18 -1 26 -10 9
-8 16 -11 16 -6 0 11 -44 42 -57 41 -4 0 -2 -3 5 -6z"/>
<path d="M11195 11150 c-3 -5 -1 -10 4 -10 6 0 11 5 11 10 0 6 -2 10 -4 10 -3
0 -8 -4 -11 -10z"/>
<path d="M6843 11140 c-13 -5 -23 -12 -23 -15 0 -4 4 -4 9 -1 5 4 11 1 13 -4
2 -6 11 -1 20 10 19 22 15 24 -19 10z"/>
<path d="M6965 11141 c-10 -17 12 -21 25 -6 10 12 10 15 -3 15 -9 0 -18 -4
-22 -9z"/>
<path d="M10998 11139 c-6 -16 8 -39 24 -39 4 0 8 8 8 18 0 14 -2 14 -9 3 -7
-11 -10 -9 -13 10 -2 19 -5 20 -10 8z"/>
<path d="M11157 11139 c7 -7 15 -10 18 -7 3 3 -2 9 -12 12 -14 6 -15 5 -6 -5z"/>
<path d="M10930 11136 c0 -2 7 -6 15 -10 8 -3 15 -1 15 4 0 6 -7 10 -15 10 -8
0 -15 -2 -15 -4z"/>
<path d="M11075 11130 c-11 -4 -23 -6 -27 -3 -5 2 -8 -2 -8 -10 0 -16 46 -12
56 5 9 14 2 16 -21 8z"/>
<path d="M6782 11123 c-15 -6 -6 -23 14 -23 8 0 14 7 14 15 0 15 -6 17 -28 8z"/>
<path d="M6940 11119 c0 -5 -5 -7 -12 -3 -7 4 -8 3 -4 -4 4 -6 13 -9 21 -6 8
4 12 10 9 15 -7 12 -14 11 -14 -2z"/>
<path d="M7026 11122 c-3 -5 1 -9 9 -9 8 0 12 4 9 9 -3 4 -7 8 -9 8 -2 0 -6
-4 -9 -8z"/>
<path d="M6392 11101 c7 -11 14 -18 17 -16 2 3 10 -3 17 -13 8 -11 16 -14 23
-7 7 7 -3 18 -30 33 -37 22 -39 22 -27 3z"/>
<path d="M6474 11108 c-4 -7 -3 -8 4 -4 7 4 12 3 12 -2 0 -5 11 -14 25 -20 36
-16 32 4 -4 23 -22 11 -32 12 -37 3z"/>
<path d="M6680 11105 c0 -6 9 -11 20 -12 11 -1 20 4 20 12 0 8 -9 13 -20 12
-11 -1 -20 -6 -20 -12z"/>
<path d="M6730 11104 c0 -17 22 -14 28 4 2 7 -3 12 -12 12 -9 0 -16 -7 -16
-16z"/>
<path d="M10830 11110 c20 -13 33 -13 25 0 -3 6 -14 10 -23 10 -15 0 -15 -2
-2 -10z"/>
<path d="M6900 11100 c0 -5 5 -10 11 -10 5 0 7 5 4 10 -3 6 -8 10 -11 10 -2 0
-4 -4 -4 -10z"/>
<path d="M6987 11096 c-12 -9 -14 -16 -8 -21 6 -3 14 1 17 9 3 9 11 13 17 9 6
-3 7 -1 3 5 -9 14 -7 15 -29 -2z"/>
<path d="M10895 11090 c-2 -3 5 -7 16 -7 10 -1 19 2 19 6 0 9 -29 10 -35 1z"/>
<path d="M11173 11090 c-13 -5 -23 -11 -23 -14 0 -8 30 0 42 12 14 14 11 14
-19 2z"/>
<path d="M6830 11078 c-16 -7 -20 -12 -12 -15 8 -3 21 2 30 11 19 18 17 19
-18 4z"/>
<path d="M6934 11065 c-26 -18 -15 -26 15 -11 13 7 19 16 14 19 -6 4 -19 0
-29 -8z"/>
<path d="M11078 11073 c7 -3 16 -2 19 1 4 3 -2 6 -13 5 -11 0 -14 -3 -6 -6z"/>
<path d="M6606 11061 c-4 -5 1 -8 9 -7 21 3 31 16 12 16 -9 0 -18 -4 -21 -9z"/>
<path d="M6725 11061 c-3 -5 -1 -12 5 -16 5 -3 10 1 10 9 0 18 -6 21 -15 7z"/>
<path d="M6770 11060 c0 -5 4 -10 9 -10 6 0 13 5 16 10 3 6 -1 10 -9 10 -9 0
-16 -4 -16 -10z"/>
<path d="M6486 11051 c-7 -11 22 -23 36 -15 6 4 5 10 -3 15 -18 11 -26 11 -33
0z"/>
<path d="M6670 11048 c0 -4 4 -8 9 -8 6 0 12 4 15 8 3 5 -1 9 -9 9 -8 0 -15
-4 -15 -9z"/>
<path d="M6870 11035 c0 -9 6 -12 15 -9 8 4 15 10 15 15 0 5 -7 9 -15 9 -8 0
-15 -7 -15 -15z"/>
<path d="M6534 11028 c-5 -8 -2 -9 9 -5 10 3 17 2 17 -4 0 -6 5 -7 11 -3 8 4
7 9 -2 15 -19 12 -27 11 -35 -3z"/>
<path d="M6832 11024 c-7 -8 -8 -14 -3 -14 10 0 25 19 20 25 -2 1 -10 -3 -17
-11z"/>
<path d="M6710 11010 c19 -13 30 -13 30 0 0 6 -10 10 -22 10 -19 0 -20 -2 -8
-10z"/>
<path d="M6750 11010 c0 -13 11 -13 30 0 12 8 11 10 -7 10 -13 0 -23 -4 -23
-10z"/>
<path d="M9636 9278 c4 -7 213 -321 464 -698 251 -377 497 -749 548 -826 l93
-141 -432 -689 c-237 -379 -463 -739 -501 -801 -67 -109 -70 -112 -111 -118
-23 -3 -179 -5 -347 -3 l-305 3 -3 203 -2 202 391 0 391 0 -6 38 c-4 20 -9 56
-12 80 l-6 42 -389 0 -389 0 0 200 0 200 430 0 430 0 0 65 0 65 -515 0 -515 0
0 -294 c0 -186 -4 -297 -10 -301 -6 -4 -10 -130 -10 -346 l0 -339 398 -2 c218
-2 555 -2 747 0 193 1 369 2 392 2 l42 0 154 248 c841 1351 978 1573 975 1582
-2 5 -68 110 -148 234 l-145 226 -159 0 -158 0 4 78 c6 100 -7 270 -28 369 -9
43 -18 87 -19 98 -2 11 -92 158 -200 328 l-197 307 -430 0 c-341 0 -428 -3
-422 -12z"/>
<path d="M11548 8854 l-278 -435 188 -272 c103 -150 191 -272 196 -272 8 0
976 1400 976 1411 0 2 -181 4 -402 4 l-403 -1 -277 -435z"/>
<path d="M7167 9234 c-140 -34 -245 -115 -300 -231 -31 -65 -32 -73 -32 -193
0 -116 2 -129 28 -181 75 -153 205 -232 406 -245 104 -7 217 14 273 51 20 14
39 25 42 25 2 0 6 -13 10 -30 l6 -30 95 0 95 0 0 235 0 235 -235 0 -235 0 0
-85 0 -85 115 0 c63 0 115 -2 115 -5 0 -18 -39 -60 -79 -83 -39 -23 -59 -27
-141 -30 -88 -3 -99 -1 -150 25 -79 41 -113 93 -118 184 -7 116 31 189 121
236 45 24 64 27 142 27 104 0 155 -20 202 -79 l28 -35 113 0 c87 0 112 3 112
13 0 28 -62 137 -100 176 -78 80 -201 121 -360 120 -52 0 -121 -7 -153 -15z"/>
<path d="M4520 8815 l0 -415 115 0 115 0 0 144 0 144 31 26 c17 14 34 26 38
26 4 0 73 -76 152 -170 l144 -169 143 -1 143 0 -183 211 c-101 116 -195 226
-210 244 l-28 33 167 144 c91 78 180 155 197 170 l31 27 -154 1 -153 0 -159
-140 -159 -140 0 140 0 140 -115 0 -115 0 0 -415z"/>
<path d="M5480 8815 l0 -415 115 0 115 0 0 415 0 415 -115 0 -115 0 0 -415z"/>
<path d="M5850 8815 l0 -415 115 0 115 0 2 250 3 249 218 -249 217 -250 110 0
110 0 0 415 0 415 -115 0 -115 0 0 -245 c0 -135 -4 -245 -8 -245 -4 0 -104
110 -221 245 l-214 245 -108 0 -109 0 0 -415z"/>
<path d="M2865 8890 c-4 -7 237 -10 714 -10 474 0 721 3 721 10 0 7 -245 10
-714 10 -466 0 -717 -3 -721 -10z"/>
<path d="M8050 8890 c0 -7 245 -10 715 -10 470 0 715 3 715 10 0 7 -245 10
-715 10 -470 0 -715 -3 -715 -10z"/>
<path d="M4434 8195 c-145 -31 -242 -104 -301 -223 -38 -75 -38 -77 -38 -196
0 -115 2 -124 32 -188 59 -126 172 -205 330 -233 223 -40 421 10 536 135 81
87 102 146 102 290 0 109 -2 119 -32 182 -58 124 -163 202 -311 234 -83 17
-237 17 -318 -1z m316 -210 c74 -41 113 -103 118 -191 6 -84 -16 -140 -73
-193 -132 -122 -386 -81 -456 74 -26 57 -25 156 2 212 45 93 131 135 269 130
72 -3 93 -8 140 -32z"/>
<path d="M6535 8200 c-152 -31 -261 -114 -322 -246 -38 -83 -44 -224 -15 -320
24 -78 76 -152 139 -200 130 -99 392 -122 535 -47 29 15 56 29 59 31 4 1 9
-11 12 -28 l7 -30 95 0 95 0 0 235 0 235 -235 0 -235 0 0 -85 0 -85 115 0 c63
0 115 -3 115 -8 0 -19 -35 -54 -78 -79 -40 -24 -60 -28 -142 -31 -88 -3 -99
-1 -150 25 -36 18 -65 43 -85 71 -28 41 -30 50 -30 131 0 80 3 92 30 137 24
38 43 55 90 79 52 26 71 30 140 30 97 -1 158 -25 201 -79 l29 -36 113 0 c87 0
112 3 112 13 0 28 -62 137 -101 177 -47 48 -140 95 -218 110 -62 12 -217 12
-276 0z"/>
<path d="M5943 8193 l-83 -4 -2 -251 -3 -251 -219 251 -218 252 -109 0 -109 0
0 -415 0 -415 115 0 115 0 2 250 3 250 215 -248 215 -247 113 -3 112 -3 0 421
0 420 -32 -2 c-18 -1 -70 -4 -115 -5z"/>
<path d="M2900 7775 l0 -415 115 0 115 0 2 218 3 217 115 -217 115 -218 80 0
80 0 110 211 c61 116 115 218 122 228 10 13 12 -30 13 -211 l0 -228 115 0 115
0 0 415 0 416 -132 -3 -131 -3 -143 -270 c-78 -148 -145 -270 -148 -270 -4 0
-71 122 -149 270 l-143 270 -127 3 -127 3 0 -416z"/>
<path d="M7270 7775 l0 -415 115 0 115 0 0 143 0 143 28 27 c15 15 33 27 39
27 6 0 59 -57 119 -127 60 -71 114 -133 120 -139 5 -7 22 -26 37 -43 l26 -32
139 3 139 3 -209 240 -209 240 34 30 c18 17 106 93 196 170 l162 140 -151 3
-152 3 -115 -103 c-64 -57 -136 -120 -160 -141 l-43 -39 0 141 0 141 -115 0
-115 0 0 -415z"/>
<path d="M8220 7890 c0 -276 2 -304 20 -353 48 -129 185 -197 395 -197 215 0
350 68 402 202 14 36 17 94 21 346 l4 302 -116 0 -115 0 -3 -283 c-3 -320 -4
-323 -81 -358 -57 -25 -167 -25 -224 0 -71 33 -73 41 -73 361 l0 280 -115 0
-115 0 0 -300z"/>
<path d="M9150 8100 l0 -89 128 -3 127 -3 3 -322 2 -323 115 0 115 0 2 323 3
322 128 3 127 3 0 89 0 90 -375 0 -375 0 0 -90z"/>
<path d="M12490 8005 l0 -55 35 0 35 0 0 55 0 55 -35 0 -35 0 0 -55z"/>
<path d="M12285 7875 c-56 -20 -85 -56 -85 -106 0 -77 29 -99 150 -119 113
-17 139 -28 146 -57 5 -18 1 -31 -15 -46 -18 -19 -33 -22 -95 -22 -65 0 -78 3
-100 24 -14 14 -26 30 -26 38 0 9 -14 13 -41 13 -39 0 -41 -1 -35 -26 18 -70
72 -104 176 -112 78 -5 138 9 179 44 52 44 51 132 -3 167 -23 15 -92 31 -184
42 -79 10 -106 50 -61 91 16 14 36 19 84 19 53 0 68 -4 89 -24 14 -14 26 -30
26 -38 0 -8 13 -13 35 -13 31 0 35 3 35 26 0 35 -55 89 -105 103 -54 15 -121
13 -170 -4z"/>
<path d="M12660 7728 c0 -126 3 -159 18 -187 26 -52 63 -74 131 -79 68 -5 118
9 155 43 l26 24 0 -29 c0 -28 3 -30 35 -30 l35 0 0 205 0 205 -35 0 -35 0 0
-137 c0 -164 -10 -190 -84 -218 -56 -22 -108 -11 -147 31 -23 24 -24 33 -27
175 l-3 149 -35 0 -34 0 0 -152z"/>
<path d="M12460 7390 c0 -20 5 -30 15 -30 11 0 15 -12 15 -50 l0 -50 35 0 35
0 0 80 0 80 -50 0 c-49 0 -50 -1 -50 -30z"/>
<path d="M11528 7233 c-202 -296 -281 -417 -281 -428 0 -7 134 -231 297 -498
l298 -487 474 0 474 0 0 258 c0 142 -7 328 -15 417 -8 88 -15 231 -15 318 l0
157 245 0 245 0 0 65 0 65 -505 -1 c-311 0 -503 -4 -500 -10 4 -5 1 -9 -4 -9
-6 0 -11 5 -11 10 0 6 -7 10 -16 10 -8 0 -12 -4 -9 -10 3 -5 -1 -10 -11 -10
-11 0 -15 -6 -11 -20 3 -10 0 -21 -7 -23 -8 -3 -7 -9 3 -20 7 -10 9 -17 4 -17
-5 0 -10 -7 -10 -15 0 -13 31 -15 214 -15 l213 0 0 -152 c0 -84 -7 -232 -15
-328 -16 -187 -19 -352 -9 -438 6 -44 9 -49 19 -35 11 14 17 8 48 -49 45 -79
57 -128 33 -128 -18 0 -39 31 -611 915 -224 347 -410 634 -415 638 -4 5 -59
-67 -122 -160z"/>
<path d="M13371 7296 c5 -4 197 -56 209 -56 4 0 13 14 19 30 l10 30 -121 0
c-67 0 -119 -2 -117 -4z"/>
<path d="M14250 7258 c-1 -91 -73 -181 -174 -214 -28 -10 -96 -20 -151 -23
l-100 -6 -8 -70 c-5 -38 -9 -104 -10 -145 l-2 -75 110 -6 c232 -13 339 -82
352 -229 8 -83 -11 -141 -63 -199 -66 -74 -125 -96 -254 -96 -80 0 -117 5
-155 19 -68 27 -140 97 -181 178 -18 36 -38 70 -44 73 -15 9 -298 -65 -322
-85 -19 -15 -19 -18 -5 -65 58 -191 179 -335 352 -421 126 -62 205 -77 385
-71 170 5 227 18 360 84 156 76 264 204 305 358 34 131 14 302 -48 407 -53 91
-172 179 -277 205 l-35 9 60 36 c143 87 213 185 249 351 l6 27 -175 0 -175 0
0 -42z"/>
<path d="M3149 7068 c-88 -45 -203 -161 -251 -254 -33 -62 -49 -114 -88 -292
-25 -110 -2 -257 60 -388 94 -195 281 -316 534 -344 270 -30 539 84 664 283
35 56 82 163 82 187 0 6 -46 10 -108 10 l-108 0 -29 -60 c-34 -72 -111 -152
-176 -186 -192 -97 -459 -58 -595 88 -73 78 -124 213 -124 329 0 37 -4 59 -12
61 -20 7 6 155 41 232 57 127 182 228 322 261 76 17 207 19 281 4 129 -27 241
-111 290 -220 l23 -49 84 0 83 0 -7 27 c-28 112 -143 247 -262 307 l-73 36
-283 0 -284 0 -64 -32z"/>
<path d="M4596 7070 c-130 -66 -213 -152 -277 -285 -35 -74 -69 -201 -69 -260
0 -14 -5 -25 -11 -25 -9 0 -10 -24 -6 -87 28 -368 265 -592 664 -628 154 -13
371 31 498 101 76 42 185 157 228 240 64 123 92 289 67 396 -5 24 -17 78 -26
121 -36 177 -160 343 -313 420 l-74 37 -311 0 -311 0 -59 -30z m574 -88 c140
-50 234 -130 289 -247 37 -78 64 -226 43 -233 -8 -2 -12 -26 -12 -67 0 -81
-30 -176 -78 -251 -45 -68 -67 -89 -137 -133 -87 -55 -173 -76 -310 -75 -103
1 -131 5 -199 28 -154 53 -245 142 -297 294 -28 80 -45 270 -31 333 41 178
182 317 368 364 85 21 289 14 364 -13z"/>
<path d="M5860 6807 c0 -185 -4 -297 -10 -303 -7 -7 -9 -130 -8 -350 l3 -339
105 0 105 0 3 265 c2 149 -2 309 -8 365 -6 55 -14 182 -17 283 -5 160 -4 182
10 182 8 0 24 -15 35 -32 12 -18 77 -107 146 -198 69 -91 126 -172 126 -180 0
-13 319 -439 466 -622 l53 -66 123 3 c68 1 126 3 131 4 13 2 7 510 -8 686 -8
94 -15 266 -15 383 l0 212 -85 0 -85 0 0 -300 c0 -193 -4 -300 -10 -300 -6 0
-10 -75 -10 -206 l0 -206 -142 183 c-79 101 -168 209 -199 239 -31 30 -98 109
-149 175 -52 66 -117 149 -145 185 -29 36 -80 102 -115 148 l-63 82 -119 0
-118 0 0 -293z"/>
<path d="M7360 6888 c0 -117 -7 -294 -15 -393 -8 -99 -15 -291 -15 -427 l0
-247 106 -3 c58 -2 108 -1 110 1 9 10 4 680 -6 686 -6 4 -10 83 -10 206 0 170
2 199 15 199 8 0 15 -4 15 -8 0 -5 65 -95 145 -201 80 -106 143 -196 140 -200
-4 -8 114 -167 385 -519 l124 -162 133 0 133 0 0 340 c0 220 -4 340 -10 340
-6 0 -10 107 -10 300 l0 300 -85 0 -85 0 0 -212 c0 -117 -5 -265 -11 -328 -6
-63 -13 -193 -17 -288 l-7 -173 -130 168 c-71 93 -160 200 -198 238 -37 39
-159 187 -270 330 l-203 260 -117 3 -117 3 0 -213z"/>
<path d="M6070 5611 c0 -33 -4 -40 -22 -43 -15 -2 -24 -11 -26 -25 -3 -20 -1
-21 27 -13 19 5 31 5 31 -1 0 -5 -11 -11 -25 -15 -14 -3 -25 -10 -25 -14 0 -4
-17 -6 -37 -4 -102 11 -170 6 -219 -15 -87 -39 -134 -98 -134 -170 0 -48 36
-96 80 -106 41 -9 57 -31 31 -44 -11 -6 -26 -11 -35 -11 -8 0 -28 -12 -45 -26
-41 -34 -49 -79 -24 -135 51 -115 199 -167 344 -122 30 9 58 16 63 14 5 -1 16
5 26 14 17 15 18 11 25 -68 l7 -84 3075 -8 c1693 -4 3079 -3 3083 1 8 8 420
902 420 910 0 2 -1489 4 -3310 4 l-3310 0 0 -39z m4940 -111 l0 -29 -97 -3
c-84 -3 -98 -5 -101 -21 -5 -24 28 -35 43 -14 15 21 48 22 65 2 7 -9 29 -15
51 -15 37 0 39 -2 39 -30 0 -29 -1 -30 -49 -30 -31 0 -53 5 -61 15 -11 13 -15
13 -33 0 -12 -8 -38 -15 -58 -15 -86 0 -122 90 -58 144 29 25 36 26 145 26
l114 0 0 -30z m1050 -44 c0 -34 -1 -35 -47 -38 -41 -3 -48 -6 -53 -28 -5 -21
-12 -25 -48 -28 l-42 -3 0 41 c0 30 6 47 25 65 21 22 33 25 95 25 l70 0 0 -34z
m-6113 -26 c50 -22 83 -70 83 -119 0 -25 -9 -42 -39 -72 -33 -33 -36 -39 -20
-44 36 -12 69 -64 69 -108 0 -91 -71 -146 -188 -147 -92 0 -165 43 -191 112
-10 26 -8 28 27 38 51 14 60 13 72 -10 26 -48 116 -62 155 -24 19 20 19 68 0
84 -8 7 -35 15 -60 18 -45 5 -45 5 -45 43 0 35 3 39 25 39 83 0 116 81 45 110
-46 19 -92 1 -118 -47 -7 -12 -18 -14 -51 -8 -23 4 -45 13 -48 21 -9 25 45 94
90 115 55 24 139 24 194 -1z m1002 -118 c33 -17 71 -66 59 -77 -3 -3 -22 -9
-42 -12 -27 -4 -40 -2 -49 10 -17 24 -68 31 -91 14 -32 -24 -12 -44 65 -67 81
-24 115 -52 124 -103 14 -76 -40 -129 -139 -135 -76 -5 -129 16 -157 62 -25
40 -20 50 27 57 31 5 41 3 51 -11 28 -40 113 -36 113 4 0 23 -33 46 -68 46
-61 1 -132 65 -132 120 0 36 30 81 63 95 45 20 135 19 176 -3z m751 -4 c33
-17 51 -35 68 -68 41 -82 25 -166 -47 -241 l-48 -50 -68 3 -68 3 -22 65 c-19
57 -25 66 -51 70 -24 4 -29 10 -29 35 l0 30 70 3 71 3 19 -72 18 -72 28 31
c15 17 33 49 40 71 30 101 -87 175 -162 100 -17 -17 -24 -18 -59 -9 -22 6 -40
17 -40 24 0 20 46 65 82 81 52 22 146 19 198 -7z m465 3 c75 -34 105 -85 105
-176 0 -65 -12 -101 -48 -139 -37 -39 -81 -56 -149 -56 -113 0 -179 57 -185
160 l-3 55 103 3 102 3 0 -36 0 -35 -50 0 c-58 0 -66 -16 -24 -49 71 -56 154
2 154 106 0 47 -54 103 -100 103 -34 0 -69 -15 -86 -38 -8 -11 -18 -12 -52 -3
-23 7 -42 15 -42 20 0 20 47 65 84 82 53 24 139 24 191 0z m1022 -1 c72 -32
83 -62 83 -223 l0 -138 -47 3 -48 3 -3 127 c-3 125 -3 127 -30 148 -21 17 -36
21 -67 17 -46 -7 -65 -28 -65 -74 0 -33 0 -33 49 -33 57 0 63 -6 55 -49 -6
-30 -9 -31 -55 -31 l-49 0 0 -55 0 -55 -50 0 -50 0 0 136 c0 122 2 140 22 172
42 68 165 93 255 52z m489 1 c81 -37 120 -128 100 -235 -15 -77 -97 -136 -191
-136 -106 0 -168 48 -185 143 -6 32 -8 62 -5 67 3 6 51 10 106 10 l99 0 0 -35
0 -35 -50 0 c-58 0 -66 -16 -24 -49 67 -53 154 1 154 94 0 47 -19 84 -51 101
-48 24 -107 14 -135 -24 -8 -11 -18 -12 -52 -3 -23 7 -42 15 -42 20 0 20 47
65 84 82 53 24 139 24 192 0z m-3420 -91 l20 -95 33 98 33 98 36 -3 c35 -3 36
-4 65 -91 16 -49 33 -85 37 -80 3 4 15 45 25 91 l18 82 49 0 c32 0 48 -4 48
-12 0 -7 -20 -89 -44 -183 l-43 -170 -44 0 -43 0 -31 97 c-16 53 -33 99 -36
102 -3 3 -20 -42 -39 -99 l-34 -105 -43 0 c-48 0 -37 -26 -97 217 -20 78 -36
145 -36 148 0 3 24 5 52 3 l53 -3 21 -95z m2244 -7 c0 -83 4 -116 18 -142 29
-58 107 -68 130 -16 7 15 12 75 12 145 l0 120 51 0 50 0 -3 -155 -3 -155 -33
-32 c-30 -31 -37 -33 -101 -33 -60 0 -73 3 -95 24 -26 24 -26 24 -26 3 0 -20
-5 -22 -50 -22 l-50 0 0 185 0 185 50 0 50 0 0 -107z m1510 -13 c0 -70 5 -130
12 -145 22 -50 96 -45 128 8 17 27 20 50 20 145 l0 112 50 0 50 0 0 -185 0
-185 -45 0 c-33 0 -45 4 -45 15 0 19 -2 19 -50 -6 -61 -32 -140 -23 -183 20
l-32 31 -3 155 -3 155 50 0 51 0 0 -120z m520 -65 l0 -185 -50 0 -50 0 0 185
0 185 50 0 50 0 0 -185z m240 55 c0 -117 2 -132 20 -150 22 -22 60 -26 91 -10
37 21 49 63 49 180 l0 110 50 0 50 0 0 -185 0 -185 -45 0 c-39 0 -45 3 -45 20
0 20 -2 20 -45 -6 -39 -22 -54 -26 -101 -22 -46 4 -61 10 -87 37 l-32 31 -3
155 -3 155 50 0 51 0 0 -130z m697 113 c63 -30 73 -59 73 -221 l0 -143 -47 3
-48 3 -3 130 c-3 156 -8 165 -103 165 l-59 0 0 -151 0 -150 -47 3 -48 3 -3
188 -2 187 126 0 c97 0 134 -4 161 -17z m603 -23 c0 -39 -1 -40 -35 -40 -35 0
-35 0 -20 -24 12 -19 15 -49 13 -147 l-3 -124 -45 0 -45 0 -3 78 -3 77 -47 -1
c-74 -2 -97 -11 -100 -42 -3 -21 2 -28 22 -33 14 -3 32 -4 40 -1 17 7 30 -8
41 -42 9 -31 -7 -41 -67 -41 -91 0 -138 36 -138 108 0 78 69 122 193 122 50 0
57 2 57 20 0 50 -108 66 -152 22 -17 -16 -25 -17 -59 -8 -21 5 -39 15 -39 21
0 16 60 72 90 84 14 5 87 10 163 10 l137 1 0 -40z m-4848 -7 c3 -26 7 -28 51
-31 l47 -3 0 -40 0 -39 -65 0 c-101 0 -135 26 -135 105 l0 35 49 0 c47 0 50
-2 53 -27z m0 -185 c3 -20 10 -23 51 -26 l47 -3 0 -40 0 -39 -65 0 c-69 0
-118 17 -129 45 -3 9 -6 32 -6 51 l0 34 49 0 c44 0 50 -3 53 -22z"/>
<path d="M6650 4080 c0 -23 5 -30 19 -30 14 0 21 -8 23 -27 l3 -28 93 -3 92
-3 0 31 c0 30 0 30 -55 30 -46 0 -55 3 -55 18 0 30 -21 42 -72 42 -47 0 -48
-1 -48 -30z"/>
<path d="M8800 4080 c0 -23 4 -30 20 -30 16 0 20 -7 20 -30 l0 -30 95 0 95 0
0 30 c0 30 -1 30 -53 30 -49 0 -53 2 -64 30 -10 28 -15 30 -62 30 -50 0 -51
-1 -51 -30z"/>
<path d="M11640 4066 c0 -19 9 -44 19 -57 18 -22 26 -24 123 -24 l103 0 3 33
3 32 -81 0 c-77 0 -81 1 -90 25 -8 20 -16 25 -45 25 -33 0 -35 -2 -35 -34z"/>
<path d="M7310 4020 l0 -30 139 0 c117 0 140 2 145 16 16 43 13 44 -139 44
l-145 0 0 -30z"/>
<path d="M10170 4020 l0 -31 143 3 142 3 3 28 3 27 -145 0 -146 0 0 -30z"/>
<path d="M6242 3935 c-63 -28 -77 -124 -24 -165 14 -11 49 -27 78 -36 60 -17
80 -47 48 -71 -25 -18 -47 -16 -77 7 -25 20 -53 25 -81 14 -14 -5 -14 -9 -1
-35 26 -50 95 -73 170 -57 58 12 85 45 85 105 0 33 -6 50 -24 68 -21 21 -81
45 -112 45 -6 0 -19 9 -29 20 -15 16 -15 22 -5 35 16 19 60 19 86 0 22 -16 52
-19 73 -6 12 8 12 13 -3 36 -33 50 -118 69 -184 40z"/>
<path d="M6570 3937 c-49 -24 -61 -68 -58 -212 l3 -130 41 -3 c39 -3 44 0 80
47 22 28 41 50 44 50 3 0 22 -22 44 -50 36 -47 41 -50 80 -47 l41 3 3 173 2
172 -40 0 -40 0 0 -127 0 -127 -45 49 -45 50 -45 -50 -45 -49 0 76 c0 98 4
108 45 108 28 0 35 5 44 30 9 28 8 32 -15 40 -34 13 -64 12 -94 -3z"/>
<path d="M7383 3930 c-38 -23 -53 -48 -53 -90 0 -45 52 -95 107 -104 70 -12
95 -66 37 -80 -26 -7 -53 3 -72 27 -14 16 -73 9 -79 -9 -2 -7 8 -25 22 -42 41
-49 134 -60 203 -23 43 23 55 86 27 140 -13 27 -75 61 -109 61 -8 0 -24 8 -37
19 -20 16 -21 21 -10 35 17 20 65 21 85 1 14 -15 67 -21 79 -9 3 4 -1 20 -9
36 -29 55 -130 76 -191 38z"/>
<path d="M8094 3940 c-26 -10 -76 -69 -69 -80 3 -5 19 -11 36 -15 24 -5 35 -2
50 14 24 25 28 26 57 5 21 -14 22 -22 22 -145 l0 -129 40 0 40 0 0 143 c0 156
-5 174 -60 202 -32 16 -83 19 -116 5z"/>
<path d="M8404 3934 c-79 -39 -70 -154 16 -188 22 -9 47 -16 54 -16 8 0 24 -9
37 -20 l24 -20 -24 -20 c-26 -22 -52 -19 -86 9 -22 19 -75 15 -82 -6 -7 -21
50 -74 91 -83 99 -22 176 24 176 104 0 57 -31 90 -103 111 -65 19 -86 37 -67
60 7 8 25 15 40 15 15 0 33 -7 40 -15 12 -15 71 -21 83 -9 3 4 -1 20 -9 36
-28 53 -124 75 -190 42z"/>
<path d="M8755 3931 c-58 -26 -77 -61 -83 -148 -6 -90 14 -150 57 -176 37 -21
129 -23 137 -3 10 26 -15 56 -45 56 -45 0 -61 27 -61 102 0 82 18 109 74 111
30 1 44 -5 62 -27 22 -25 24 -36 24 -142 l0 -114 41 0 41 0 -4 139 c-3 133 -4
141 -28 167 -51 55 -140 70 -215 35z"/>
<path d="M9113 3930 c-30 -18 -53 -47 -53 -68 0 -5 14 -12 31 -16 22 -4 38 0
58 15 23 17 33 19 50 10 19 -11 21 -21 23 -144 l3 -132 43 -3 42 -3 0 131 c0
149 -11 190 -59 214 -41 22 -99 20 -138 -4z"/>
<path d="M10242 3931 c-38 -25 -56 -63 -48 -107 8 -42 42 -71 106 -92 58 -19
83 -43 63 -63 -20 -20 -74 -15 -93 8 -13 17 -23 20 -50 14 -44 -9 -47 -23 -13
-61 51 -56 168 -60 221 -7 45 46 27 143 -31 167 -12 5 -42 15 -67 22 -38 11
-45 17 -45 38 0 20 6 26 28 28 16 2 40 -4 53 -13 28 -18 75 -17 81 2 2 6 -9
26 -25 44 -25 28 -36 33 -88 36 -47 3 -66 0 -92 -16z"/>
<path d="M10954 3940 c-24 -10 -64 -57 -64 -76 0 -23 57 -28 85 -6 30 24 63
18 70 -12 3 -11 6 -73 8 -136 l2 -115 40 0 40 0 0 136 c0 150 -8 180 -57 205
-30 15 -91 18 -124 4z"/>
<path d="M11262 3931 c-41 -26 -56 -60 -48 -104 8 -44 40 -73 106 -95 58 -19
83 -43 63 -63 -20 -20 -74 -15 -93 8 -13 17 -23 20 -50 14 -44 -9 -47 -23 -13
-61 51 -56 168 -60 221 -7 45 46 27 143 -31 167 -12 5 -42 15 -67 22 -38 11
-45 17 -45 38 0 20 6 26 28 28 16 2 40 -4 53 -13 28 -18 75 -17 81 2 2 6 -9
26 -25 44 -25 28 -36 33 -88 36 -47 3 -66 0 -92 -16z"/>
<path d="M11595 3936 c-39 -18 -79 -61 -72 -79 9 -25 59 -28 84 -5 13 12 36
20 58 21 75 2 110 -87 64 -163 -35 -57 -42 -55 -59 13 l-16 62 -63 3 -62 3 3
-33 c2 -25 9 -34 28 -38 20 -5 28 -17 42 -68 l19 -62 58 0 c56 0 60 2 98 43
49 53 67 103 61 172 -5 62 -33 106 -82 129 -41 19 -120 20 -161 2z"/>
<path d="M11981 3932 c-59 -29 -76 -62 -79 -157 -5 -108 13 -149 76 -177 48
-22 109 -18 118 7 10 25 -15 55 -45 55 -45 0 -61 27 -61 103 0 82 19 107 78
107 63 0 71 -17 74 -155 l3 -120 43 -3 44 -3 -4 140 c-3 133 -4 141 -28 167
-50 54 -151 71 -219 36z"/>
<path d="M12749 3936 c-32 -19 -64 -65 -52 -77 5 -5 23 -12 41 -15 24 -5 33
-3 38 10 4 10 18 16 35 16 41 0 49 -28 49 -166 l0 -114 41 0 40 0 -3 150 c-3
147 -3 150 -30 176 -33 33 -117 43 -159 20z"/>
<path d="M13068 3934 c-35 -19 -48 -43 -48 -92 0 -55 23 -79 100 -106 56 -19
65 -25 65 -46 0 -21 -5 -26 -34 -28 -22 -2 -40 3 -55 16 -24 23 -86 20 -86 -4
0 -54 88 -101 166 -89 89 13 129 88 89 164 -13 27 -75 61 -109 61 -8 0 -24 8
-37 19 -20 16 -21 21 -10 35 18 22 64 20 85 -3 16 -17 31 -18 74 -5 20 6 -13
61 -48 79 -37 19 -117 19 -152 -1z"/>
<path d="M5439 3917 c-42 -28 -48 -70 -11 -75 13 -2 33 5 44 14 24 23 92 25
112 4 8 -8 16 -24 18 -35 3 -18 -4 -21 -68 -26 -39 -4 -81 -12 -93 -19 -21
-11 -22 -16 -16 -72 13 -110 14 -113 73 -116 39 -2 54 1 58 12 10 25 -14 55
-48 58 -41 4 -59 31 -35 55 12 13 34 18 75 18 l57 0 3 -72 3 -73 34 0 35 0 0
126 c0 69 -5 134 -10 145 -10 17 -7 19 20 19 27 0 30 3 30 30 l0 30 -124 0
c-112 0 -126 -2 -157 -23z"/>
<path d="M5821 3914 c-35 -29 -51 -77 -51 -149 0 -119 43 -175 136 -175 60 0
74 13 54 49 -7 14 -21 21 -40 21 -53 0 -76 44 -68 131 6 64 27 87 63 71 18 -9
31 -9 49 0 50 22 55 10 58 -134 l3 -133 38 -3 37 -3 0 136 c0 149 -9 182 -55
203 -34 16 -57 15 -80 -2 -17 -12 -23 -12 -47 0 -39 20 -62 17 -97 -12z"/>
<path d="M6940 3820 c0 -134 12 -177 55 -206 67 -44 175 -34 224 21 34 39 44
95 39 220 l-3 80 -42 3 -43 3 0 -119 c0 -105 -2 -121 -20 -140 -27 -29 -80
-29 -106 -1 -16 18 -20 40 -22 140 l-4 119 -39 0 -39 0 0 -120z"/>
<path d="M7662 3768 l3 -173 40 0 40 0 3 83 3 82 38 0 39 0 34 -82 35 -83 41
-3 c52 -4 52 2 12 91 -34 75 -36 92 -15 101 22 8 45 68 45 116 l0 40 -45 0
-45 0 0 -43 c0 -24 -5 -48 -12 -55 -7 -7 -38 -12 -70 -12 l-58 0 0 55 0 55
-45 0 -45 0 2 -172z"/>
<path d="M9400 3805 c0 -144 7 -174 48 -201 36 -24 117 -21 152 4 27 21 28 21
33 2 4 -15 14 -20 41 -20 l36 0 0 175 0 175 -40 0 -40 0 0 -97 c0 -73 -4 -107
-18 -133 -19 -40 -63 -61 -90 -44 -33 21 -42 57 -42 167 l0 107 -40 0 -40 0 0
-135z"/>
<path d="M9802 3808 c4 -147 13 -175 72 -205 44 -23 135 -21 177 3 56 33 69
71 69 212 l0 122 -45 0 -45 0 0 -120 c0 -107 -2 -122 -20 -140 -11 -11 -33
-20 -50 -20 -17 0 -39 9 -50 20 -18 18 -20 33 -20 140 l0 120 -46 0 -46 0 4
-132z"/>
<path d="M10530 3765 l0 -175 40 0 39 0 3 83 3 82 39 0 38 0 33 -80 33 -80 46
-3 c25 -2 46 0 46 3 0 4 -16 43 -35 87 l-35 80 30 34 c26 30 30 43 30 89 l0
55 -40 0 c-39 0 -40 -1 -40 -33 0 -18 -7 -43 -16 -55 -13 -19 -24 -22 -75 -22
l-59 0 0 55 0 55 -40 0 -40 0 0 -175z"/>
<path d="M12322 3768 l3 -173 40 0 40 0 3 138 3 137 49 0 c82 0 90 -15 90
-161 l0 -120 43 3 42 3 3 110 c4 124 -6 170 -44 206 -24 22 -34 24 -150 27
l-124 4 2 -174z"/>
<path d="M5467 3544 c-12 -12 -8 -44 6 -44 7 0 20 -15 28 -32 18 -41 53 -60
102 -54 57 7 77 29 77 88 0 48 -1 49 -27 46 -23 -2 -29 -8 -31 -35 -3 -34 -29
-57 -49 -45 -6 4 -13 23 -15 42 -3 33 -5 35 -43 38 -23 2 -44 0 -48 -4z"/>
<path d="M6627 3544 c-12 -12 -8 -44 7 -50 8 -3 19 -18 26 -33 31 -75 171 -65
185 13 11 55 4 71 -32 74 -30 3 -32 1 -35 -35 -3 -33 -6 -38 -28 -38 -21 0
-26 6 -30 35 -5 33 -8 35 -45 38 -23 2 -44 0 -48 -4z"/>
<path d="M5787 3323 c-11 -10 -8 -63 3 -63 28 0 35 -50 40 -270 l5 -225 38 -3
37 -3 0 233 c0 195 -3 237 -16 256 -15 22 -15 22 40 22 56 0 56 0 56 30 l0 30
-98 0 c-54 0 -102 -3 -105 -7z"/>
<path d="M6397 3323 c-15 -14 -6 -58 16 -81 25 -27 34 -113 36 -350 l1 -133
38 3 37 3 0 225 c0 199 -2 229 -18 253 l-17 27 55 0 c54 0 55 0 55 30 l0 30
-98 0 c-54 0 -102 -3 -105 -7z"/>
<path d="M7237 3273 c-4 -3 -7 -17 -7 -30 0 -23 -2 -23 -105 -23 l-105 0 0
-30 0 -31 138 3 137 3 3 58 c3 57 3 57 -26 57 -16 0 -32 -3 -35 -7z"/>
<path d="M8347 3263 c-14 -14 -6 -64 13 -83 17 -17 33 -20 110 -20 l90 0 0 30
0 30 -65 0 c-60 0 -66 2 -77 25 -8 18 -19 25 -38 25 -15 0 -30 -3 -33 -7z"/>
<path d="M12274 3245 c-19 -19 -24 -34 -22 -58 3 -29 6 -32 38 -32 29 0 36 4
38 22 3 22 13 27 67 35 14 2 20 11 20 28 0 23 -4 25 -57 28 -51 3 -61 0 -84
-23z"/>
<path d="M8600 3082 c0 -98 -5 -182 -11 -201 -19 -54 -79 -69 -117 -28 -20 21
-22 34 -22 140 l0 117 -46 0 -46 0 4 -127 c3 -140 15 -175 68 -207 41 -24 146
-22 188 4 56 34 63 66 60 278 l-3 187 -37 3 -38 3 0 -169z"/>
<path d="M10550 3081 c0 -97 -5 -181 -11 -200 -20 -56 -83 -70 -118 -25 -18
23 -21 41 -21 140 l0 114 -46 0 -46 0 4 -127 c5 -143 14 -173 64 -204 42 -25
138 -28 183 -4 65 33 71 57 71 278 l0 197 -40 0 -40 0 0 -169z"/>
<path d="M11290 3190 l0 -30 73 -1 c39 0 96 -2 124 -5 63 -6 93 8 93 41 l0 25
-145 0 -145 0 0 -30z"/>
<path d="M5523 3082 c2 -34 4 -37 27 -34 15 2 36 -5 52 -18 27 -20 27 -24 30
-143 l3 -122 38 -3 39 -3 -4 140 c-3 139 -3 140 -32 170 -30 31 -79 51 -128
51 -24 0 -26 -3 -25 -38z"/>
<path d="M6684 3101 c-23 -10 -49 -29 -58 -42 -15 -22 -15 -25 1 -36 24 -18
51 -16 80 7 48 37 123 13 123 -40 0 -18 -7 -20 -55 -20 -71 0 -132 -24 -150
-61 -24 -45 -19 -87 14 -120 25 -25 37 -29 85 -29 60 0 70 7 60 44 -5 20 -13
26 -41 28 -21 2 -41 10 -47 20 -17 27 13 48 77 55 l56 6 3 -74 3 -74 40 0 40
0 0 132 c0 117 -2 135 -21 160 -45 61 -132 79 -210 44z"/>
<path d="M7042 3106 c-55 -25 -67 -108 -20 -140 20 -14 20 -16 3 -32 -27 -27
-35 -59 -24 -98 15 -55 52 -69 187 -74 l112 -4 0 176 0 176 -40 0 -39 0 -3
-137 -3 -138 -29 -3 c-56 -7 -95 7 -102 34 -8 32 5 45 53 53 32 5 38 10 41 34
3 24 0 27 -25 27 -47 0 -73 11 -73 31 0 22 17 34 50 34 18 0 27 8 34 27 5 15
7 30 3 34 -14 14 -93 14 -125 0z"/>
<path d="M7810 3098 c-24 -13 -50 -33 -58 -45 -14 -22 -13 -24 19 -37 31 -13
35 -12 62 10 16 13 41 24 58 24 33 0 69 -31 69 -60 0 -18 -7 -20 -55 -20 -71
0 -132 -24 -150 -61 -24 -45 -19 -87 14 -120 25 -25 37 -29 85 -29 60 0 71 8
62 45 -5 19 -14 24 -43 27 -21 2 -41 10 -47 20 -17 27 13 48 77 55 l56 6 3
-74 3 -74 40 0 40 0 0 132 c0 117 -2 135 -21 160 -46 63 -136 80 -214 41z"/>
<path d="M10050 3113 c-26 -10 -70 -56 -70 -74 0 -29 55 -35 87 -10 23 19 29
20 47 7 19 -12 21 -24 24 -145 l3 -132 42 3 42 3 3 100 c4 143 -3 182 -43 222
-28 28 -40 33 -76 32 -24 0 -51 -3 -59 -6z"/>
<path d="M10754 3101 c-46 -28 -61 -80 -37 -128 19 -40 41 -54 113 -75 34 -10
46 -18 48 -36 6 -41 -86 -47 -102 -6 -5 14 -26 13 -74 -2 -21 -6 13 -61 49
-80 39 -20 128 -20 167 0 57 30 67 119 18 165 -13 12 -50 30 -82 40 -51 15
-59 20 -59 42 0 19 6 25 28 27 16 2 39 -4 52 -12 28 -18 71 -21 81 -5 11 18
-17 57 -51 74 -45 21 -113 19 -151 -4z"/>
<path d="M11340 3103 c-60 -31 -80 -73 -80 -170 0 -132 31 -173 132 -173 31 0
60 4 63 10 3 5 -1 22 -9 38 -12 22 -21 28 -38 25 -13 -2 -32 2 -43 11 -17 12
-20 26 -20 85 0 86 21 116 81 114 61 -2 68 -18 74 -156 l5 -122 40 0 40 0 3
120 c3 133 -8 170 -61 209 -39 28 -140 33 -187 9z"/>
<path d="M11682 3108 c-17 -17 -16 -218 2 -261 37 -88 152 -121 247 -71 41 21
69 70 69 122 0 38 2 42 26 42 23 0 25 3 22 33 -2 24 -8 33 -25 35 -19 3 -22
10 -25 55 -3 49 -5 52 -31 55 -41 5 -57 -14 -57 -64 l0 -43 -42 -3 c-40 -3
-43 -5 -43 -33 0 -28 3 -30 43 -33 41 -3 42 -4 42 -38 0 -65 -69 -97 -121 -55
-22 18 -24 28 -29 143 l-5 123 -30 3 c-17 2 -36 -3 -43 -10z"/>
<path d="M12164 3109 c-37 -11 -84 -55 -84 -79 0 -28 58 -35 85 -10 50 47 145
8 145 -60 0 -39 -21 -90 -47 -113 -20 -17 -21 -17 -27 10 -4 15 -12 45 -17 66
l-10 37 -59 0 -60 0 0 -35 c0 -31 3 -35 25 -35 21 0 27 -8 43 -62 l18 -63 58
-3 c57 -3 59 -2 100 40 61 64 82 151 51 212 -19 36 -19 36 10 36 22 0 25 4 25
35 l0 35 -112 -1 c-62 0 -127 -5 -144 -10z"/>
<path d="M6012 2964 l3 -146 33 -29 c41 -36 109 -40 160 -9 l34 21 5 -21 c4
-15 14 -20 39 -20 l34 0 0 175 0 175 -39 0 -39 0 -4 -114 c-3 -105 -5 -117
-27 -140 -14 -15 -35 -26 -50 -26 -58 0 -71 32 -71 169 l0 111 -41 0 -40 0 3
-146z"/>
<path d="M7402 2938 l3 -173 40 0 40 0 3 173 2 172 -45 0 -45 0 2 -172z"/>
<path d="M7572 2938 l3 -173 40 0 40 0 3 173 2 172 -45 0 -45 0 2 -172z"/>
<path d="M8770 2964 l0 -146 29 -29 c25 -24 38 -29 78 -29 68 0 79 9 59 48
-12 24 -20 29 -37 25 -37 -10 -49 20 -49 119 l0 88 53 0 c28 0 57 -4 64 -8 20
-13 33 -61 33 -127 0 -80 13 -109 58 -131 42 -20 94 -14 134 16 l28 21 0 -24
c0 -89 -68 -129 -127 -75 -22 20 -50 20 -82 -1 -12 -8 -12 -13 2 -35 40 -61
125 -81 200 -48 75 33 81 53 85 285 l4 197 -46 0 -46 0 0 -109 c0 -94 -3 -112
-21 -135 -14 -17 -30 -26 -49 -26 -42 0 -60 32 -60 108 0 134 -34 162 -200
162 l-110 0 0 -146z"/>
<path d="M9390 2964 l0 -146 29 -29 c25 -24 38 -29 78 -29 68 0 79 9 59 48
-12 24 -20 29 -37 25 -37 -10 -49 20 -49 119 l0 88 53 0 c28 0 57 -4 64 -8 20
-13 33 -61 33 -127 0 -80 13 -109 58 -131 42 -20 94 -14 134 16 l28 21 0 -24
c0 -89 -68 -129 -127 -75 -22 20 -50 20 -82 -1 -12 -8 -12 -13 2 -35 30 -44
65 -61 132 -61 69 1 106 20 133 69 14 26 18 66 20 229 l4 197 -46 0 -46 0 0
-109 c0 -94 -3 -112 -21 -135 -14 -17 -30 -26 -49 -26 -42 0 -60 32 -60 108 0
134 -34 162 -200 162 l-110 0 0 -146z"/>
<path d="M8120 3046 c0 -19 9 -44 19 -57 16 -20 28 -24 83 -24 l63 0 3 32 c3
31 2 32 -40 35 -36 2 -44 7 -46 26 -3 18 -10 22 -43 22 -38 0 -39 -1 -39 -34z"/>
<path d="M11020 3045 c0 -58 35 -85 110 -85 l60 0 0 34 c0 33 -2 35 -37 38
-28 2 -41 9 -48 26 -8 17 -18 22 -47 22 -37 0 -38 -1 -38 -35z"/>
<path d="M5551 2928 c1 -7 5 -24 9 -38 7 -22 8 -21 9 13 1 20 -3 37 -9 37 -5
0 -10 -6 -9 -12z"/>
<path d="M8120 2872 c0 -59 30 -82 109 -82 l62 0 -3 33 c-3 29 -6 32 -43 37
-32 4 -41 9 -43 28 -3 18 -10 22 -43 22 -39 0 -39 0 -39 -38z"/>
<path d="M11020 2872 c0 -59 30 -82 108 -82 l62 0 0 35 c0 34 -1 35 -40 35
-34 0 -41 4 -46 25 -5 21 -12 25 -45 25 -39 0 -39 0 -39 -38z"/>
<path d="M12307 2710 c-6 -24 -42 -27 -51 -5 -3 8 -14 15 -25 15 -10 0 -21 -7
-25 -15 -7 -19 -36 -19 -50 0 -9 13 -17 14 -44 4 -17 -6 -32 -15 -32 -21 0
-23 24 -51 56 -64 31 -13 39 -13 65 0 26 13 34 13 65 0 60 -25 124 12 124 73
0 32 -2 33 -39 33 -30 0 -40 -4 -44 -20z"/>
<path d="M6440 2040 c0 -82 3 -100 15 -100 8 0 15 -9 15 -20 0 -11 -6 -20 -14
-20 -10 0 -13 -18 -13 -70 0 -52 3 -70 13 -70 8 0 14 -9 14 -20 0 -11 -7 -20
-15 -20 -12 0 -15 -18 -15 -100 l0 -100 3800 0 3800 0 0 100 0 100 -25 0 -25
0 0 109 c0 85 3 110 14 114 11 4 14 22 13 68 -1 42 2 64 11 66 6 3 12 18 12
34 l0 29 -3800 0 -3800 0 0 -100z m1170 -120 c0 -16 -7 -20 -30 -20 -23 0 -30
4 -30 20 0 16 7 20 30 20 23 0 30 -4 30 -20z m860 -35 c0 -52 -1 -55 -25 -55
-22 0 -25 4 -25 35 0 32 -2 35 -30 35 l-30 0 0 -90 0 -90 -30 0 -30 0 0 90 c0
83 -1 90 -20 90 -16 0 -20 -7 -20 -35 0 -32 -2 -35 -30 -35 -30 0 -30 1 -30
55 l0 55 135 0 135 0 0 -55z m530 25 c0 -30 0 -30 59 -30 73 0 84 -11 89 -96
4 -63 4 -64 -21 -64 -25 0 -26 3 -29 58 l-3 57 -47 3 -48 3 0 -60 c0 -58 -1
-61 -25 -61 l-25 0 0 110 0 110 25 0 c21 0 25 -5 25 -30z m700 -80 l0 -110
-25 0 -25 0 0 110 0 110 25 0 25 0 0 -110z m1052 98 c8 -7 18 -21 21 -30 5
-15 1 -18 -23 -18 -17 0 -30 5 -30 10 0 6 -13 10 -30 10 -40 0 -38 -18 6 -61
l36 -34 15 23 c11 16 25 22 51 22 l36 0 -35 -36 -34 -36 35 -29 34 -29 -33 0
c-18 0 -42 5 -53 11 -14 8 -23 8 -31 0 -15 -15 -150 -14 -165 1 -20 20 -13 56
18 91 17 19 30 45 30 58 0 40 28 59 85 59 28 0 58 -6 67 -12z m428 -100 l48
-108 -27 0 c-20 0 -31 7 -39 25 -10 23 -17 25 -70 25 -53 0 -60 -2 -70 -25 -8
-17 -20 -25 -38 -25 -30 0 -32 -9 28 127 l41 94 40 -3 39 -3 48 -107z m130 2
l0 -110 -30 0 -30 0 0 110 0 110 30 0 30 0 0 -110z m242 75 l49 -36 48 36 c27
19 58 35 70 35 20 0 21 -5 21 -110 l0 -110 -25 0 c-24 0 -25 2 -25 76 l0 75
-30 -18 c-28 -16 -30 -21 -30 -75 0 -55 -1 -58 -25 -58 -24 0 -25 3 -25 54 0
49 -3 57 -29 75 -16 12 -32 21 -35 21 -3 0 -6 -34 -6 -75 0 -73 -1 -75 -25
-75 l-25 0 0 110 c0 106 1 110 21 110 12 0 44 -16 71 -35z m-4092 0 c0 -22 4
-25 35 -25 28 0 35 -4 35 -20 0 -16 -7 -20 -36 -20 -35 0 -35 -1 -32 -37 3
-36 5 -38 41 -41 29 -3 37 -7 37 -23 0 -16 -7 -19 -55 -19 -63 0 -75 13 -75
79 0 34 -3 41 -20 41 -13 0 -20 7 -20 20 0 13 7 20 20 20 15 0 20 7 20 25 0
20 5 25 25 25 20 0 25 -5 25 -25z m6320 0 c0 -22 4 -25 35 -25 28 0 35 -4 35
-20 0 -16 -7 -20 -36 -20 -35 0 -35 -1 -32 -37 3 -36 5 -38 41 -41 29 -3 37
-7 37 -23 0 -16 -7 -19 -55 -19 -63 0 -75 13 -75 79 0 34 -3 41 -20 41 -13 0
-20 7 -20 20 0 13 7 20 20 20 15 0 20 7 20 25 0 20 5 25 25 25 20 0 25 -5 25
-25z m-7217 -57 l27 -33 28 33 c18 22 36 32 55 32 l28 0 -26 -37 c-14 -21 -25
-41 -25 -46 0 -5 12 -24 26 -43 l26 -34 -30 0 c-23 0 -37 9 -56 33 l-26 32
-26 -32 c-19 -24 -33 -33 -56 -33 l-30 0 27 36 c29 38 28 48 -11 102 -16 21
-16 22 12 22 20 0 37 -9 57 -32z m341 26 c10 -4 16 -18 16 -40 0 -43 -21 -54
-100 -54 -38 0 -59 -4 -55 -10 3 -5 40 -10 81 -10 67 0 74 -2 74 -20 0 -19 -7
-20 -89 -20 -85 0 -91 1 -110 26 -12 15 -21 39 -21 54 0 15 9 39 21 54 19 24
26 26 94 26 40 0 80 -3 89 -6z m236 -14 c0 -18 -7 -20 -64 -20 -56 0 -66 -3
-71 -20 -3 -11 -3 -29 0 -40 5 -17 15 -20 71 -20 57 0 64 -2 64 -20 0 -18 -7
-20 -75 -20 -91 0 -115 17 -115 80 0 63 24 80 115 80 68 0 75 -2 75 -20z m70
-40 l0 -60 45 0 45 0 0 60 c0 57 1 60 25 60 24 0 25 -2 25 -68 0 -40 -5 -73
-12 -80 -7 -7 -41 -12 -85 -12 -86 0 -93 7 -93 99 0 58 1 61 25 61 24 0 25 -3
25 -60z m390 -20 c0 -79 0 -80 -25 -80 -25 0 -25 1 -25 80 0 79 0 80 25 80 25
0 25 -1 25 -80z m102 20 c12 -33 26 -60 29 -60 3 0 17 27 30 60 21 52 27 60
50 60 l27 0 -31 -80 -32 -81 -44 3 -44 3 -33 78 -32 77 28 0 c25 0 31 -6 52
-60z m362 28 c8 -22 6 -32 -9 -48 -15 -16 -30 -20 -87 -20 -44 0 -67 -4 -63
-10 3 -5 40 -10 81 -10 67 0 74 -2 74 -20 0 -18 -7 -20 -85 -20 -102 0 -125
15 -125 80 0 66 24 81 123 78 79 -3 82 -4 91 -30z m634 20 c19 -19 15 -66 -7
-78 -11 -5 -48 -10 -82 -10 -86 0 -64 -18 26 -22 57 -2 70 -6 73 -20 3 -16 -6
-18 -83 -18 -78 0 -88 2 -110 25 -16 15 -25 36 -25 55 0 19 9 40 25 55 21 22
33 25 98 25 43 0 78 -5 85 -12z m232 -8 c0 -17 -8 -19 -67 -22 l-68 -3 0 -35
0 -35 68 -3 c59 -3 67 -5 67 -22 0 -18 -7 -20 -72 -20 -60 0 -76 4 -95 22 -30
28 -31 83 -1 115 19 20 31 23 95 23 66 0 73 -2 73 -20z m421 4 c7 -9 15 -45
17 -80 4 -63 4 -64 -21 -64 -25 0 -26 3 -29 58 l-3 57 -47 3 -48 3 0 -60 c0
-58 -1 -61 -25 -61 -25 0 -25 1 -25 80 l0 80 84 0 c64 0 87 -4 97 -16z m249
-4 c13 -13 20 -33 20 -60 0 -62 -25 -80 -109 -80 -89 0 -116 19 -116 80 0 61
27 80 116 80 56 0 73 -4 89 -20z m330 0 c13 -13 20 -33 20 -60 0 -62 -25 -80
-109 -80 -89 0 -116 19 -116 80 0 61 27 80 116 80 56 0 73 -4 89 -20z m250
-76 c0 -129 -3 -134 -90 -134 -63 0 -70 2 -70 20 0 18 7 20 55 20 42 0 55 3
55 15 0 11 -12 15 -52 15 -39 0 -57 5 -75 22 -30 28 -31 83 -1 115 19 20 31
23 100 23 l78 0 0 -96z m80 36 l0 -60 45 0 45 0 0 60 c0 57 1 60 25 60 l25 0
0 -103 c0 -67 -4 -107 -12 -115 -7 -7 -41 -12 -81 -12 -60 0 -68 2 -65 18 2
13 15 18 56 20 37 2 52 7 52 18 0 10 -14 14 -58 14 -32 0 -63 5 -70 12 -7 7
-12 40 -12 80 0 66 1 68 25 68 24 0 25 -3 25 -60z m1708 48 c7 -7 12 -41 12
-80 l0 -69 -97 3 c-96 3 -98 3 -107 30 -8 22 -6 32 9 48 15 16 30 20 87 20 44
0 67 4 63 10 -3 6 -37 10 -76 10 -62 0 -69 2 -69 20 0 18 7 20 83 20 51 0 88
-5 95 -12z m232 -7 c5 -11 10 -47 10 -80 0 -58 -1 -61 -25 -61 -24 0 -25 3
-25 60 l0 60 -45 0 -45 0 0 -60 c0 -57 -1 -60 -25 -60 -25 0 -25 1 -25 80 l0
80 85 0 c73 0 86 -3 95 -19z m240 0 c5 -11 10 -47 10 -80 l0 -61 -93 0 c-101
0 -117 7 -117 52 0 36 24 48 99 48 34 0 61 4 61 10 0 6 -30 10 -70 10 -63 0
-70 2 -70 20 0 18 7 20 85 20 73 0 86 -3 95 -19z m230 -84 c0 -67 -4 -107 -12
-115 -7 -7 -39 -12 -75 -12 -56 0 -63 2 -63 20 0 17 7 20 50 20 38 0 50 4 50
15 0 11 -12 15 -49 15 -67 0 -96 24 -96 80 0 62 27 80 121 80 l74 0 0 -103z
m238 91 c19 -19 15 -66 -7 -78 -11 -5 -47 -10 -80 -10 -89 0 -75 -19 16 -22
65 -3 78 -6 81 -20 3 -16 -6 -18 -81 -18 -106 0 -132 16 -132 80 0 62 27 80
119 80 43 0 77 -5 84 -12z m286 -10 c10 -14 16 -44 16 -80 0 -55 -1 -58 -25
-58 -22 0 -24 4 -27 58 -3 54 -4 57 -30 60 -28 3 -28 3 -28 -57 0 -58 -1 -61
-25 -61 -24 0 -25 3 -25 60 0 57 -1 60 -25 60 -24 0 -25 -3 -25 -60 0 -57 -1
-60 -25 -60 -25 0 -25 1 -25 80 l0 80 114 0 c107 0 116 -1 130 -22z m244 10
c19 -19 15 -66 -7 -78 -11 -5 -48 -10 -82 -10 -86 0 -64 -18 26 -22 57 -2 70
-6 73 -20 3 -16 -6 -18 -83 -18 -78 0 -88 2 -110 25 -16 15 -25 36 -25 55 0
19 9 40 25 55 21 22 33 25 98 25 43 0 78 -5 85 -12z m220 0 c7 -7 12 -40 12
-80 0 -66 -1 -68 -25 -68 -24 0 -25 3 -25 60 l0 60 -45 0 -45 0 0 -60 c0 -57
-1 -60 -25 -60 -25 0 -25 1 -25 80 l0 80 83 0 c51 0 88 -5 95 -12z"/>
<path d="M10612 1797 c-12 -13 -22 -26 -22 -30 0 -4 23 -7 50 -7 56 0 61 7 27
38 -29 27 -29 27 -55 -1z"/>
<path d="M11072 1860 l-19 -45 34 -3 c19 -2 37 -1 39 1 2 2 -4 24 -15 48 l-20
44 -19 -45z"/>
<path d="M6765 1830 c-4 -6 15 -10 49 -10 31 0 56 5 56 10 0 6 -22 10 -49 10
-28 0 -53 -4 -56 -10z"/>
<path d="M7905 1830 c-4 -6 17 -10 54 -10 34 0 61 4 61 10 0 6 -24 10 -54 10
-30 0 -58 -4 -61 -10z"/>
<path d="M8555 1830 c-4 -6 15 -10 49 -10 31 0 56 5 56 10 0 6 -22 10 -49 10
-28 0 -53 -4 -56 -10z"/>
<path d="M9452 1828 c-16 -16 -15 -43 2 -57 8 -7 36 -11 63 -9 48 3 48 3 48
38 0 35 0 35 -50 38 -30 2 -55 -2 -63 -10z"/>
<path d="M9775 1820 c-3 -11 -3 -29 0 -40 6 -18 14 -21 63 -18 l57 3 0 35 0
35 -57 3 c-49 3 -57 0 -63 -18z"/>
<path d="M10034 1826 c-3 -8 -4 -25 -2 -38 3 -20 9 -23 51 -26 l47 -3 0 40 0
41 -45 0 c-30 0 -47 -5 -51 -14z"/>
<path d="M11820 1770 c0 -6 27 -10 60 -10 33 0 60 4 60 10 0 6 -27 10 -60 10
-33 0 -60 -4 -60 -10z"/>
<path d="M12290 1770 c0 -5 25 -10 55 -10 30 0 55 5 55 10 0 6 -25 10 -55 10
-30 0 -55 -4 -55 -10z"/>
<path d="M12525 1820 c-13 -41 3 -60 51 -60 l44 0 0 40 0 40 -44 0 c-36 0 -46
-4 -51 -20z"/>
<path d="M12760 1830 c0 -5 25 -10 55 -10 30 0 55 5 55 10 0 6 -25 10 -55 10
-30 0 -55 -4 -55 -10z"/>
<path d="M13295 1830 c-4 -6 15 -10 49 -10 31 0 56 5 56 10 0 6 -22 10 -49 10
-28 0 -53 -4 -56 -10z"/>
<path d="M7065 1144 c-34 -17 -65 -44 -65 -54 0 -17 58 -32 78 -21 57 30 118
2 128 -60 5 -30 14 -43 34 -54 33 -17 40 -8 40 54 0 104 -124 183 -215 135z"/>
<path d="M7695 1139 c-4 -6 4 -22 16 -36 23 -24 24 -31 27 -204 3 -169 4 -179
23 -179 18 0 19 9 19 173 0 140 -3 177 -16 195 -15 22 -14 22 25 22 34 0 41 3
41 20 0 18 -7 20 -64 20 -36 0 -68 -5 -71 -11z"/>
<path d="M10432 1084 c-28 -19 -30 -64 -3 -64 10 0 21 9 24 20 4 15 14 20 36
20 24 0 31 4 31 20 0 16 -7 20 -33 20 -18 0 -43 -7 -55 -16z"/>
<path d="M8432 970 c-24 -23 -29 -67 -9 -93 6 -10 34 -25 61 -35 57 -20 76
-43 57 -66 -19 -23 -78 -21 -93 4 -15 23 -48 27 -48 6 0 -8 14 -26 31 -40 41
-35 100 -36 134 -1 49 48 24 102 -60 132 -42 16 -50 23 -50 43 0 21 5 25 36
28 23 2 40 -2 49 -12 7 -9 19 -16 26 -16 23 0 16 27 -12 49 -35 28 -93 28
-122 1z"/>
<path d="M8662 970 c-24 -23 -29 -67 -9 -93 6 -10 34 -25 61 -35 57 -20 76
-43 57 -66 -19 -23 -78 -21 -93 4 -15 23 -48 27 -48 6 0 -8 14 -26 31 -40 41
-35 100 -36 134 -1 49 48 24 102 -60 132 -42 16 -50 23 -50 43 0 21 5 25 36
28 23 2 40 -2 49 -12 7 -9 19 -16 26 -16 23 0 16 27 -12 49 -35 28 -93 28
-122 1z"/>
<path d="M8899 975 c-32 -17 -45 -45 -27 -56 8 -5 21 0 33 11 12 11 28 20 36
20 32 0 39 -23 39 -127 0 -96 1 -103 20 -103 19 0 20 7 20 109 0 89 -3 113
-17 130 -23 27 -71 35 -104 16z"/>
<path d="M9240 955 c-12 -19 -28 -35 -37 -35 -27 0 -9 -35 20 -38 25 -3 27 -6
27 -51 0 -26 -5 -52 -12 -59 -16 -16 -70 -16 -86 0 -19 19 -14 99 8 133 11 17
20 40 20 53 0 20 -5 22 -45 22 -38 0 -45 -3 -45 -20 0 -15 7 -20 26 -20 l26 0
-21 -34 c-15 -23 -21 -50 -21 -89 0 -48 4 -58 26 -76 38 -30 103 -28 138 4 23
21 26 32 26 89 0 47 -4 67 -15 73 -12 7 -11 14 10 46 l26 37 -25 0 c-17 0 -31
-10 -46 -35z"/>
<path d="M7458 950 c-27 -25 -30 -31 -18 -39 10 -7 21 -5 35 9 39 36 125 19
125 -25 0 -8 -19 -14 -60 -17 -74 -5 -110 -33 -110 -85 0 -46 30 -73 79 -73
64 0 65 36 1 42 -28 2 -36 8 -38 27 -5 34 22 51 80 51 l48 0 0 -61 c0 -52 2
-60 18 -57 14 3 17 17 20 91 1 48 -2 96 -8 106 -8 17 -6 20 12 23 13 2 24 11
26 21 3 15 -6 17 -87 17 -87 0 -92 -1 -123 -30z"/>
<path d="M7860 850 c0 -123 1 -130 20 -130 14 0 20 7 20 21 l0 20 26 -20 c37
-29 89 -27 119 4 23 23 25 31 25 130 0 98 -1 105 -20 105 -19 0 -20 -7 -20
-91 0 -108 -9 -129 -53 -129 -61 0 -77 30 -77 139 0 74 -2 81 -20 81 -19 0
-20 -7 -20 -130z"/>
<path d="M8168 950 c-27 -25 -30 -31 -18 -39 10 -7 21 -5 35 9 39 36 125 19
125 -25 0 -8 -19 -14 -60 -17 -74 -5 -110 -33 -110 -85 0 -46 30 -73 79 -73
64 0 65 36 1 42 -28 2 -36 8 -38 27 -5 34 22 51 80 51 l48 0 0 -61 c0 -52 2
-60 18 -57 14 3 17 17 20 91 1 48 -2 96 -8 106 -8 17 -6 20 12 23 13 2 24 11
26 21 3 15 -6 17 -87 17 -87 0 -92 -1 -123 -30z"/>
<path d="M9345 958 c3 -13 16 -70 28 -128 20 -88 27 -105 43 -105 15 0 23 17
43 88 14 48 28 84 31 80 4 -5 17 -45 30 -90 18 -66 27 -83 41 -83 11 0 19 3
19 6 0 3 11 55 25 116 30 133 30 138 5 138 -11 0 -20 -6 -20 -14 0 -7 -8 -47
-17 -87 l-17 -74 -26 85 c-36 115 -51 116 -81 6 -13 -46 -26 -83 -30 -81 -3 3
-9 24 -13 47 -14 88 -26 118 -47 118 -15 0 -18 -5 -14 -22z"/>
<path d="M9680 870 c0 -98 2 -112 21 -131 25 -25 82 -23 87 3 2 12 -5 17 -30
20 l-33 3 -3 88 -3 87 54 0 c29 0 58 -5 65 -12 8 -8 12 -58 12 -160 0 -141 1
-148 20 -148 19 0 20 7 20 155 0 152 -1 156 -25 180 -22 22 -32 25 -105 25
l-80 0 0 -110z"/>
<path d="M9980 850 c0 -123 1 -130 20 -130 19 0 20 7 20 110 l0 110 53 0 c29
0 58 -5 65 -12 8 -8 12 -47 12 -110 0 -91 1 -98 20 -98 19 0 20 7 20 105 0 99
-2 107 -25 130 -22 22 -32 25 -105 25 l-80 0 0 -130z"/>
<path d="M10270 884 c0 -52 5 -104 10 -115 15 -27 62 -49 106 -49 51 0 104 53
104 104 0 25 4 36 15 36 8 0 15 9 15 20 0 11 -7 20 -15 20 -11 0 -15 11 -15
40 0 33 -3 40 -20 40 -17 0 -20 -7 -20 -39 0 -39 -1 -40 -37 -43 -27 -2 -39
-8 -41 -20 -3 -15 4 -18 39 -18 l42 0 -6 -36 c-8 -49 -23 -64 -67 -64 -59 0
-70 20 -70 128 0 85 -1 92 -20 92 -19 0 -20 -7 -20 -96z"/>
</g>
</svg>
